<?xml version="1.0" encoding="UTF-8"?>
<svg id="Capa_1" data-name="Capa 1" xmlns="http://www.w3.org/2000/svg" viewBox="0 0 362.18 362.18">
  <defs>
    <style>
      .cls-1 {
        fill: #2b1b1b;
      }

      .cls-1, .cls-2 {
        stroke-width: 0px;
      }

      .cls-2 {
        fill: #e69f03;
      }
    </style>
  </defs>
  <g>
    <circle class="cls-1" cx="181.09" cy="181.09" r="170.41"/>
    <circle class="cls-2" cx="183.4" cy="180.51" r="151.07" transform="translate(-73.93 182.55) rotate(-45)"/>
    <path class="cls-2" d="M181.09,16C89.91,16,16,89.91,16,181.09s73.92,165.09,165.09,165.09,165.09-73.91,165.09-165.09S272.27,16,181.09,16ZM181.09,337.78c-86.4,0-156.69-70.29-156.69-156.69S94.69,24.4,181.09,24.4s156.69,70.29,156.69,156.69-70.29,156.69-156.69,156.69Z"/>
    <g>
      <path class="cls-1" d="M54.13,247.18c-.54-.68-1.04-1.39-1.5-2.14-.97-1.59-1.73-3.25-2.36-4.94-2.23-3.39-3.91-7.22-4.52-11.14-.27-1.71-.4-3.43-.47-5.13-.03-.08-.06-.16-.1-.24-.09-.2-.15-.4-.21-.59-1.4.66-2.95,1.01-4.53.98.02,0,.05,0,.07,0,.91,2.37,1.82,4.96,2.7,7.75,1.25,3.81,2.37,8.01,3.42,12.49.69,2.92,1.28,5.97,1.81,9.12,2.71,4.97,5.7,9.77,8.94,14.39-.32-3.55-.73-7.05-1.29-10.44-.58-3.47-1.22-6.85-1.95-10.1Z"/>
      <path class="cls-1" d="M36.84,223.25c-.34-.14-.66-.31-.96-.49,1.35,4.69,2.91,9.28,4.69,13.77-.3-1.3-.6-2.58-.93-3.8-.89-3.49-1.85-6.65-2.79-9.48Z"/>
      <path class="cls-1" d="M297.79,197.44c8.55,4.9,10.68,23.6-8.23,25.49.33,19.41-22.89,17.73-22.89,17.73,0,0-14.54,41.84-31.21,12.34-16.05,9.76-30.36-15.37-30.36-15.37,0,0-10.15-1.58-14.73-1.65-.45,0-.87-.08-1.24-.2-2.18,1.19-4.35,2.39-6.53,3.59h-3.91c.55.42,1.09.84,1.64,1.26-2.25,1.25-4.5,2.51-6.73,3.77-.7-.58-1.4-1.16-2.12-1.71-1.41-1.14-2.85-2.24-4.3-3.32h-20.99c1.37,1.26,2.74,2.53,4.09,3.83,3.05,3.07,6.04,6.2,8.85,9.44-2.24,1.29-4.47,2.58-6.68,3.87-2.29-2.9-4.72-5.74-7.21-8.54-2.75-2.96-5.58-5.85-8.51-8.6h-15.46c1.23,1.31,2.46,2.64,3.66,3.99,3.51,4.12,6.94,8.33,9.99,12.72,1.59,2.15,2.97,4.41,4.45,6.58.22.37.45.74.67,1.11-2.43,1.43-4.82,2.86-7.18,4.26-.21-.39-.42-.79-.63-1.18-1.28-2.13-2.47-4.35-3.87-6.47-2.66-4.33-5.7-8.51-8.83-12.64-1.09-1.37-2.21-2.74-3.34-4.08-1.16,2.3-2.52,4.43-4.11,6.29-.94,1.09-1.93,2.11-2.97,3.04,2.07,3.41,4.06,6.86,5.82,10.38,1.27,2.35,2.31,4.79,3.46,7.14.7,1.67,1.43,3.31,2.11,4.96-2.57,1.55-5.08,3.08-7.51,4.56-.69-2.12-1.5-4.22-2.27-6.38-.96-2.29-1.82-4.66-2.9-6.95-1.39-3.21-2.97-6.38-4.63-9.52-2.87,1.57-5.94,2.7-9.13,3.39,1.25,3.04,2.42,6.1,3.44,9.18.82,2.46,1.54,4.92,2.24,7.37.61,2.46,1.32,4.88,1.79,7.3.17.78.33,1.56.49,2.33-2.9,1.79-5.66,3.5-8.26,5.12-.21-1.93-.5-3.87-.81-5.85-.3-2.31-.85-4.61-1.28-6.97-.53-2.33-1.07-4.7-1.71-7.07-.96-3.54-2.08-7.07-3.34-10.58-4.11.05-8.26-.55-12.27-1.77h0c.92,2.73,1.79,5.52,2.58,8.37,1.47,5.35,2.81,10.85,3.75,16.44.55,2.78.86,5.6,1.28,8.4.08.83.17,1.65.25,2.48,26.65,23.2,61.45,37.27,99.48,37.27,80.4,0,146.38-62.87,151.38-142.03-6.41,2-18.34,3.56-26.94-2.43,2.46,3.4,1.33,8.64-8.35,9.31Z"/>
      <path class="cls-1" d="M71.02,269.47c-.92-4.24-2.06-8.37-3.26-12.39,0,0,0,0,0,0-2.52-1.15-5.01-2.49-7.31-4.08.26,1.09.52,2.2.77,3.32,1.1,4.91,1.91,10.05,2.58,15.31.21,1.74.38,3.5.52,5.27,3.07,3.75,6.31,7.34,9.72,10.78-.08-.74-.16-1.48-.27-2.21-.61-5.39-1.62-10.75-2.76-15.99Z"/>
      <g>
        <g>
          <path class="cls-1" d="M134.98,170.05c5.04-7.64,2.39-19.08,2.39-19.08,12.94,6.45,10.64,19.31,3.73,33.16-6.9,13.84-16.45,23.09-28.73,16.97.84-14.86,14.72-19.09,22.6-31.05Z"/>
          <path class="cls-1" d="M115.7,185.36c-5.49,7.33-3.25,15.77-3.25,15.77-12.94-6.45-10.64-19.32-3.74-33.16,6.9-13.84,16.45-23.09,28.73-16.97-2.3,22.68-12.33,21.79-21.74,34.35Z"/>
        </g>
        <g>
          <path class="cls-1" d="M67.73,214.55c-2.78-8.72-13.33-13.85-13.33-13.85,13.16-6.01,21.71,3.87,28.13,17.94,6.42,14.07,7.62,27.31-4.87,33.01-11.03-9.99-5.59-23.45-9.93-37.1Z"/>
          <path class="cls-1" d="M67.52,239.17c2.25,8.87,10.22,12.45,10.22,12.45-13.16,6.01-21.71-3.87-28.13-17.94-6.42-14.07-7.62-27.31,4.87-33.01,16.19,16.05,9.2,23.28,13.05,38.5Z"/>
        </g>
        <g>
          <path class="cls-1" d="M102.81,210.78c4.43-1.28,7.15-6.52,7.15-6.52,2.85,6.7-2.24,10.88-9.41,13.92-7.17,3.04-13.85,3.46-16.55-2.9,5.18-5.42,11.88-2.49,18.81-4.5Z"/>
          <path class="cls-1" d="M90.42,210.34c-4.5,1.01-6.4,4.97-6.4,4.97-2.85-6.7,2.24-10.88,9.41-13.92,7.17-3.04,13.85-3.46,16.55,2.9-8.3,7.93-11.85,4.31-19.56,6.05Z"/>
        </g>
        <g>
          <path class="cls-1" d="M109.7,229.08c2.03-4.86-.69-11.04-.69-11.04,8.01,2.26,8.08,9.78,5.67,18.34-2.42,8.56-6.82,14.82-14.42,12.67-1.12-8.49,6.28-12.37,9.45-19.97Z"/>
          <path class="cls-1" d="M100.44,239.8c-2.32,4.73-.15,9.26-.15,9.26-8.01-2.26-8.08-9.78-5.66-18.34,2.42-8.56,6.82-14.82,14.42-12.67,1.13,13.07-4.63,13.64-8.61,21.75Z"/>
        </g>
        <g>
          <path class="cls-1" d="M87.08,199.11c3.33-.05,6.23-3.19,6.23-3.19.71,5.21-3.63,7.15-9.2,7.91-5.58.76-10.31-.22-10.98-5.16,4.64-2.79,8.75.52,13.96.44Z"/>
          <path class="cls-1" d="M78.53,196.45c-3.33-.15-5.41,2.25-5.41,2.25-.71-5.21,3.63-7.15,9.2-7.91,5.57-.76,10.31.22,10.98,5.16-7.29,3.95-9.08.76-14.78.5Z"/>
        </g>
        <g>
          <path class="cls-1" d="M126.83,216.46c2.98,2.03,7.49,1.05,7.49,1.05-2.61,5.06-7.66,4.08-13.07,1.29-5.41-2.79-9-6.6-6.52-11.4,5.84.41,7.43,5.9,12.09,9.07Z"/>
          <path class="cls-1" d="M120.91,208.79c-2.85-2.2-6.19-1.37-6.19-1.37,2.61-5.06,7.66-4.08,13.07-1.29,5.41,2.79,9,6.6,6.52,11.4-8.92-1.03-8.51-4.97-13.4-8.75Z"/>
        </g>
        <g>
          <path class="cls-1" d="M131.37,232.79c3.09,1.23,6.97-.56,6.97-.56-1.34,5.09-6.09,5.22-11.53,3.79-5.44-1.43-9.44-4.14-8.17-8.97,5.35-.81,7.89,3.82,12.74,5.74Z"/>
          <path class="cls-1" d="M124.48,227.06c-3.02-1.41-5.86.01-5.86.01,1.34-5.09,6.09-5.22,11.53-3.79,5.44,1.43,9.44,4.14,8.18,8.97-8.25.86-8.68-2.77-13.85-5.19Z"/>
        </g>
        <g>
          <path class="cls-1" d="M92.42,254.31c2.51-.44,4.32-3.15,4.32-3.15,1.16,3.85-1.89,5.84-6.01,7.08-4.12,1.24-7.82,1.07-8.92-2.59,3.17-2.66,6.68-.65,10.61-1.33Z"/>
          <path class="cls-1" d="M85.63,253.31c-2.53.28-3.82,2.35-3.82,2.35-1.16-3.86,1.89-5.84,6.01-7.08,4.12-1.24,7.82-1.07,8.92,2.59-5.04,3.86-6.77,1.66-11.11,2.14Z"/>
        </g>
        <g>
          <path class="cls-1" d="M150.76,235.4c2.4,1.51,5.92.63,5.92.63-1.92,4.05-5.92,3.41-10.25,1.35-4.33-2.06-7.25-4.96-5.42-8.81,4.61.17,6,4.45,9.75,6.82Z"/>
          <path class="cls-1" d="M145.9,229.51c-2.3-1.66-4.91-.91-4.91-.91,1.93-4.05,5.92-3.41,10.25-1.35,4.33,2.06,7.25,4.96,5.42,8.8-7.04-.58-6.82-3.69-10.77-6.54Z"/>
        </g>
        <g>
          <path class="cls-1" d="M188.18,230.52c2.4,1.51,5.92.63,5.92.63-1.92,4.05-5.92,3.41-10.25,1.35-4.33-2.06-7.25-4.96-5.42-8.81,4.61.17,6,4.45,9.75,6.82Z"/>
          <path class="cls-1" d="M183.32,224.64c-2.3-1.66-4.91-.91-4.91-.91,1.93-4.05,5.92-3.41,10.25-1.35,4.33,2.06,7.25,4.96,5.42,8.8-7.04-.58-6.82-3.69-10.77-6.54Z"/>
        </g>
        <g>
          <path class="cls-1" d="M151.33,221.66c1.74-.38,2.93-2.33,2.93-2.33.92,2.66-1.15,4.14-3.99,5.13-2.84.99-5.43.98-6.31-1.55,2.14-1.96,4.65-.66,7.37-1.25Z"/>
          <path class="cls-1" d="M146.56,221.17c-1.76.27-2.6,1.75-2.6,1.75-.92-2.66,1.15-4.14,3.99-5.12,2.84-.99,5.43-.98,6.31,1.54-3.41,2.84-4.68,1.36-7.7,1.83Z"/>
        </g>
        <g>
          <path class="cls-1" d="M194.48,219.6c1.18-.26,1.98-1.57,1.98-1.57.63,1.8-.77,2.8-2.7,3.47-1.92.67-3.67.66-4.27-1.05,1.44-1.32,3.14-.44,4.98-.85Z"/>
          <path class="cls-1" d="M191.26,219.27c-1.19.19-1.76,1.19-1.76,1.19-.62-1.8.77-2.8,2.7-3.47,1.92-.67,3.67-.66,4.27,1.04-2.3,1.92-3.17.92-5.21,1.24Z"/>
        </g>
        <g>
          <path class="cls-1" d="M99.54,173.66c1.4-.97,1.74-3.14,1.74-3.14,1.79,2.02.5,4.08-1.65,6-2.16,1.92-4.45,2.86-6.15.94,1.18-2.51,3.87-2.28,6.07-3.81Z"/>
          <path class="cls-1" d="M95.14,174.97c-1.46.89-1.66,2.51-1.66,2.51-1.79-2.02-.5-4.08,1.65-6,2.15-1.92,4.45-2.86,6.15-.94-1.97,3.77-3.65,2.92-6.15,4.44Z"/>
        </g>
        <g>
          <path class="cls-1" d="M141.68,197.92c1.49-2.47.51-6.03.51-6.03,4.15,1.87,3.59,5.94,1.6,10.38-2,4.44-4.88,7.47-8.82,5.7.07-4.69,4.39-6.19,6.72-10.05Z"/>
          <path class="cls-1" d="M135.81,202.98c-1.63,2.38-.82,5-.82,5-4.15-1.87-3.59-5.94-1.59-10.38,2-4.44,4.88-7.47,8.82-5.7-.44,7.16-3.6,7.01-6.41,11.08Z"/>
        </g>
        <g>
          <path class="cls-1" d="M70.69,189.57c2.23-1.55,2.76-4.98,2.76-4.98,2.85,3.2.8,6.48-2.63,9.53-3.42,3.05-7.07,4.54-9.77,1.5,1.87-3.99,6.15-3.63,9.64-6.05Z"/>
          <path class="cls-1" d="M63.7,191.66c-2.32,1.41-2.63,3.98-2.63,3.98-2.85-3.2-.8-6.48,2.63-9.53,3.42-3.04,7.07-4.54,9.77-1.5-3.13,5.98-5.79,4.63-9.77,7.05Z"/>
        </g>
        <g>
          <path class="cls-1" d="M166.83,230.79c2.44,3.3,7.66,3.96,7.66,3.96-4.72,4.45-9.78,1.48-14.53-3.57-4.76-5.05-7.17-10.5-2.69-14.72,6.12,2.65,5.75,9.16,9.57,14.33Z"/>
          <path class="cls-1" d="M163.38,220.3c-2.23-3.45-6.13-3.81-6.13-3.81,4.72-4.45,9.78-1.49,14.54,3.57,4.76,5.05,7.17,10.5,2.69,14.72-9.19-4.48-7.26-8.57-11.09-14.48Z"/>
        </g>
        <g>
          <path class="cls-1" d="M92.57,187.87c2.59,1.48,6.25.39,6.25.39-1.83,4.34-6.06,3.85-10.71,1.89-4.64-1.96-7.85-4.88-6.11-9,4.85-.03,6.51,4.4,10.56,6.72Z"/>
          <path class="cls-1" d="M87.19,181.91c-2.49-1.64-5.19-.74-5.19-.74,1.84-4.34,6.06-3.86,10.71-1.89,4.64,1.96,7.85,4.88,6.11,9-7.42-.29-7.34-3.56-11.62-6.37Z"/>
        </g>
      </g>
      <g>
        <g>
          <path class="cls-1" d="M221.66,236.49c4.32,8.07,15.63,11.2,15.63,11.2-11.84,8.3-22.05.14-30.92-12.53-8.87-12.67-12.46-25.47-1.21-33.34,12.66,7.82,9.76,22.04,16.51,34.67Z"/>
          <path class="cls-1" d="M217.4,212.24c-3.82-8.32-12.31-10.38-12.31-10.38,11.84-8.3,22.05-.14,30.92,12.53,8.87,12.67,12.45,25.47,1.21,33.34-18.84-12.84-13.28-21.22-19.83-35.49Z"/>
        </g>
        <g>
          <path class="cls-1" d="M264.26,224.51c3.45,6.46,12.5,8.96,12.5,8.96-9.48,6.64-17.64.11-24.74-10.02-7.1-10.13-9.97-20.38-.97-26.68,10.13,6.25,7.81,17.64,13.21,27.74Z"/>
          <path class="cls-1" d="M260.84,205.11c-3.06-6.66-9.85-8.31-9.85-8.31,9.48-6.64,17.64-.11,24.74,10.02,7.1,10.13,9.96,20.38.97,26.68-15.07-10.27-10.62-16.98-15.86-28.4Z"/>
        </g>
        <g>
          <path class="cls-1" d="M289.06,209.93c2.09,3.91,7.57,5.42,7.57,5.42-5.74,4.02-10.68.07-14.97-6.07-4.3-6.13-6.03-12.33-.59-16.14,6.13,3.79,4.72,10.67,7.99,16.79Z"/>
          <path class="cls-1" d="M287,198.19c-1.85-4.03-5.96-5.03-5.96-5.03,5.74-4.02,10.68-.07,14.97,6.07,4.3,6.13,6.03,12.33.59,16.15-9.12-6.22-6.43-10.28-9.6-17.18Z"/>
        </g>
        <g>
          <path class="cls-1" d="M200.59,165.58c7.2,5.65,18.81,3.96,18.81,3.96-7.5,12.36-20.13,9-33.35.98-13.22-8.02-21.66-18.3-14.54-30.03,14.73,2.06,17.81,16.25,29.07,25.09Z"/>
          <path class="cls-1" d="M186.92,145.11c-6.85-6.08-15.45-4.54-15.45-4.54,7.5-12.37,20.13-9.01,33.35-.99,13.22,8.02,21.66,18.3,14.54,30.03-22.42-4.17-20.7-14.08-32.44-24.5Z"/>
        </g>
        <g>
          <path class="cls-1" d="M189.43,194.77c-.99,4.5,2.32,9.4,2.32,9.4-7.25-.7-8.49-7.16-7.75-14.91.74-7.75,3.56-13.83,10.44-13.17,2.29,7.13-3.47,11.63-5.02,18.68Z"/>
          <path class="cls-1" d="M195.73,184.09c1.26-4.43-1.32-8-1.32-8,7.25.7,8.49,7.16,7.74,14.91-.74,7.75-3.56,13.83-10.44,13.17-3.02-11.08,1.86-12.47,4.01-20.08Z"/>
        </g>
        <g>
          <path class="cls-1" d="M154.58,195.05c-1.54,7.03,3.62,14.67,3.62,14.67-11.31-1.08-13.25-11.17-12.09-23.26,1.16-12.1,5.55-21.57,16.29-20.54,3.58,11.13-5.42,18.15-7.83,29.14Z"/>
          <path class="cls-1" d="M164.41,178.39c1.96-6.92-2.06-12.48-2.06-12.48,11.31,1.09,13.25,11.17,12.08,23.27-1.16,12.1-5.55,21.57-16.29,20.54-4.71-17.28,2.9-19.46,6.26-31.32Z"/>
        </g>
        <g>
          <path class="cls-1" d="M245.32,248.53c-2.75,3.7-1.75,9.52-1.75,9.52-6.32-3.62-4.79-10.02-.93-16.78,3.87-6.76,8.93-11.14,14.93-7.7-.85,7.44-7.95,9.17-12.25,14.96Z"/>
          <path class="cls-1" d="M255.45,241.38c2.97-3.52,2.09-7.83,2.09-7.83,6.32,3.61,4.79,10.02.93,16.78-3.87,6.76-8.93,11.14-14.93,7.71,1.81-11.34,6.82-10.6,11.92-16.65Z"/>
        </g>
        <g>
          <path class="cls-1" d="M229.14,150.48c3.31,4.1,10.03,4.66,10.03,4.66-5.81,5.96-12.45,2.44-18.82-3.77-6.38-6.21-9.77-13.06-4.26-18.72,7.99,3.06,7.88,11.42,13.05,17.83Z"/>
          <path class="cls-1" d="M224.13,137.23c-3.05-4.29-8.07-4.55-8.07-4.55,5.81-5.96,12.45-2.44,18.82,3.77,6.37,6.21,9.77,13.06,4.26,18.72-12.03-5.24-9.78-10.58-15.01-17.94Z"/>
        </g>
        <g>
          <path class="cls-1" d="M210.65,190.32c-1.54,2.95-.17,6.99-.17,6.99-4.92-1.86-4.56-6.6-2.57-11.86,1.99-5.26,5.11-8.96,9.78-7.19.24,5.41-4.63,7.45-7.04,12.06Z"/>
          <path class="cls-1" d="M217.07,184.07c1.72-2.85.6-5.83.6-5.83,4.92,1.86,4.56,6.6,2.57,11.86-1.99,5.26-5.11,8.96-9.78,7.19,0-8.29,3.66-8.34,6.61-13.23Z"/>
        </g>
        <g>
          <path class="cls-1" d="M229.5,166.12c-4.49.92-7.62,5.9-7.62,5.9-2.29-6.88,3.09-10.61,10.45-13.06,7.36-2.44,14.01-2.33,16.18,4.2-5.57,4.96-11.98,1.53-19.02,2.96Z"/>
          <path class="cls-1" d="M241.76,167.55c4.54-.64,6.75-4.42,6.75-4.42,2.29,6.88-3.09,10.61-10.45,13.06-7.35,2.44-14.02,2.33-16.18-4.2,8.87-7.21,12.1-3.33,19.88-4.43Z"/>
        </g>
        <g>
          <path class="cls-1" d="M303.85,163.09c-4.49.92-7.62,5.9-7.62,5.9-2.29-6.88,3.09-10.61,10.45-13.06,7.36-2.44,14.01-2.33,16.18,4.2-5.57,4.96-11.98,1.53-19.02,2.96Z"/>
          <path class="cls-1" d="M316.11,164.52c4.54-.64,6.75-4.42,6.75-4.42,2.29,6.88-3.09,10.61-10.45,13.06-7.35,2.44-14.02,2.33-16.18-4.2,8.87-7.21,12.1-3.33,19.88-4.43Z"/>
        </g>
        <g>
          <path class="cls-1" d="M247.3,139.92c-1.16-2.13-4.16-2.93-4.16-2.93,3.12-2.22,5.84-.08,8.21,3.26,2.37,3.34,3.35,6.72.38,8.82-3.37-2.04-2.62-5.82-4.44-9.15Z"/>
          <path class="cls-1" d="M248.48,146.33c1.03,2.19,3.28,2.72,3.28,2.72-3.12,2.22-5.84.08-8.21-3.26-2.37-3.34-3.34-6.72-.38-8.82,5.01,3.36,3.55,5.59,5.32,9.36Z"/>
        </g>
        <g>
          <path class="cls-1" d="M160.79,145.56c-.98,2.37.36,5.37.36,5.37-3.9-1.08-3.95-4.74-2.8-8.91,1.16-4.17,3.29-7.22,6.99-6.2.56,4.13-3.02,6.03-4.55,9.74Z"/>
          <path class="cls-1" d="M165.27,140.32c1.12-2.31.05-4.51.05-4.51,3.9,1.08,3.95,4.74,2.8,8.91-1.16,4.17-3.28,7.22-6.99,6.2-.58-6.36,2.22-6.64,4.14-10.6Z"/>
        </g>
        <g>
          <path class="cls-1" d="M175.77,204.15c-.82,2.41.71,5.3.71,5.3-3.94-.82-4.23-4.45-3.35-8.66.88-4.22,2.79-7.38,6.53-6.6.83,4.06-2.61,6.18-3.88,9.96Z"/>
          <path class="cls-1" d="M179.87,198.66c.96-2.36-.24-4.47-.24-4.47,3.94.82,4.23,4.45,3.35,8.66-.88,4.21-2.79,7.38-6.53,6.6-.99-6.27,1.77-6.74,3.42-10.79Z"/>
        </g>
        <g>
          <path class="cls-1" d="M178.06,189.07c-.63,1.87.54,4.1.54,4.1-3.05-.63-3.27-3.44-2.59-6.7.68-3.26,2.16-5.71,5.05-5.1.64,3.14-2.02,4.78-3,7.7Z"/>
          <path class="cls-1" d="M181.23,184.83c.74-1.83-.19-3.46-.19-3.46,3.05.63,3.27,3.44,2.59,6.7-.68,3.26-2.16,5.71-5.05,5.1-.76-4.85,1.37-5.21,2.64-8.34Z"/>
        </g>
        <g>
          <path class="cls-1" d="M183.56,212.82c-2.17,1.34-2.84,4.54-2.84,4.54-2.51-3.15-.42-6.12,2.94-8.81,3.36-2.68,6.86-3.9,9.24-.92-1.95,3.65-5.95,3.09-9.34,5.19Z"/>
          <path class="cls-1" d="M190.23,211.21c2.24-1.21,2.67-3.6,2.67-3.6,2.51,3.14.42,6.12-2.94,8.81-3.36,2.69-6.86,3.9-9.24.92,3.24-5.46,5.66-4.06,9.51-6.13Z"/>
        </g>
        <g>
          <path class="cls-1" d="M179.72,171.94c-1.52-1.69-4.43-1.77-4.43-1.77,2.36-2.7,5.3-1.34,8.19,1.19,2.89,2.53,4.51,5.4,2.26,7.96-3.51-1.13-3.65-4.73-6.03-7.37Z"/>
          <path class="cls-1" d="M182.18,177.53c1.41,1.78,3.58,1.77,3.58,1.77-2.36,2.7-5.3,1.34-8.19-1.19-2.89-2.53-4.51-5.4-2.26-7.96,5.3,1.98,4.45,4.33,6.87,7.38Z"/>
        </g>
        <g>
          <path class="cls-1" d="M157.78,159.4c-1.68,1.52-1.76,4.43-1.76,4.43-2.71-2.35-1.35-5.3,1.16-8.19,2.52-2.89,5.39-4.52,7.95-2.28-1.13,3.51-4.72,3.67-7.36,6.05Z"/>
          <path class="cls-1" d="M163.36,156.92c1.77-1.42,1.76-3.58,1.76-3.58,2.71,2.36,1.35,5.3-1.17,8.19-2.52,2.89-5.38,4.52-7.95,2.28,1.96-5.3,4.32-4.46,7.36-6.89Z"/>
        </g>
        <g>
          <path class="cls-1" d="M141.34,213.29c-1.81,1.11-2.37,3.78-2.37,3.78-2.09-2.62-.35-5.1,2.45-7.34,2.8-2.24,5.72-3.26,7.7-.77-1.63,3.04-4.96,2.58-7.79,4.33Z"/>
          <path class="cls-1" d="M146.89,211.94c1.87-1.01,2.22-3,2.22-3,2.09,2.62.35,5.1-2.45,7.34-2.8,2.24-5.72,3.25-7.7.76,2.7-4.55,4.72-3.38,7.93-5.11Z"/>
        </g>
        <g>
          <path class="cls-1" d="M240.6,217.34c.19,1.7,1.93,3.02,1.93,3.02-2.63.61-3.83-1.51-4.49-4.31-.66-2.81-.39-5.27,2.1-5.86,1.65,2.23.16,4.49.45,7.15Z"/>
          <path class="cls-1" d="M241.54,212.84c-.08-1.7-1.41-2.65-1.41-2.65,2.63-.61,3.83,1.51,4.48,4.31.66,2.81.39,5.27-2.1,5.86-2.37-3.53-.82-4.6-.97-7.52Z"/>
        </g>
        <g>
          <path class="cls-1" d="M207.95,134.71c.19,1.7,1.93,3.02,1.93,3.02-2.63.62-3.83-1.51-4.49-4.31-.66-2.81-.39-5.27,2.1-5.86,1.65,2.23.16,4.49.45,7.15Z"/>
          <path class="cls-1" d="M208.89,130.21c-.08-1.71-1.41-2.65-1.41-2.65,2.63-.61,3.83,1.51,4.48,4.31.66,2.81.39,5.27-2.1,5.86-2.37-3.53-.83-4.59-.97-7.52Z"/>
        </g>
        <g>
          <path class="cls-1" d="M248.7,154.59c1.68.28,3.43-1.04,3.43-1.04-.11,2.7-2.48,3.28-5.36,3.16-2.88-.12-5.18-1.04-5.07-3.6,2.59-.99,4.37,1.05,7.01,1.48Z"/>
          <path class="cls-1" d="M244.62,152.48c-1.67-.38-2.93.65-2.93.65.12-2.7,2.48-3.28,5.36-3.16,2.88.12,5.18,1.04,5.07,3.6-4.04,1.33-4.65-.44-7.5-1.09Z"/>
        </g>
        <g>
          <path class="cls-1" d="M257.33,160.57c-1.16-2.13-4.16-2.93-4.16-2.93,3.12-2.22,5.84-.08,8.21,3.26,2.37,3.34,3.35,6.72.38,8.82-3.37-2.04-2.62-5.82-4.44-9.15Z"/>
          <path class="cls-1" d="M258.51,166.98c1.03,2.19,3.28,2.72,3.28,2.72-3.12,2.22-5.84.08-8.21-3.26-2.37-3.34-3.34-6.72-.38-8.82,5.01,3.36,3.55,5.59,5.32,9.36Z"/>
        </g>
        <g>
          <path class="cls-1" d="M258.73,175.24c1.68.28,3.43-1.04,3.43-1.04-.11,2.7-2.48,3.28-5.36,3.16-2.88-.12-5.18-1.04-5.07-3.6,2.59-.99,4.37,1.05,7.01,1.48Z"/>
          <path class="cls-1" d="M254.65,173.12c-1.67-.38-2.93.65-2.93.65.12-2.7,2.48-3.28,5.36-3.16,2.88.12,5.18,1.04,5.07,3.6-4.04,1.33-4.65-.44-7.5-1.09Z"/>
        </g>
        <g>
          <path class="cls-1" d="M299.86,178.99c-1.16-2.13-4.16-2.93-4.16-2.93,3.12-2.22,5.84-.08,8.21,3.26,2.37,3.34,3.35,6.72.38,8.82-3.37-2.04-2.62-5.82-4.44-9.15Z"/>
          <path class="cls-1" d="M301.04,185.4c1.03,2.19,3.28,2.72,3.28,2.72-3.12,2.22-5.84.08-8.21-3.26-2.37-3.34-3.34-6.72-.38-8.82,5.01,3.36,3.55,5.59,5.32,9.36Z"/>
        </g>
        <g>
          <path class="cls-1" d="M315.01,179.48c-3.38-.67-6.99,1.88-6.99,1.88.41-5.43,5.22-6.45,11.03-6.02,5.8.44,10.39,2.45,10,7.6-5.3,1.82-8.74-2.42-14.03-3.47Z"/>
          <path class="cls-1" d="M323.08,184.02c3.33.87,5.96-1.11,5.96-1.11-.41,5.43-5.22,6.45-11.03,6.01-5.8-.44-10.38-2.45-9.99-7.6,8.23-2.42,9.35,1.2,15.06,2.7Z"/>
        </g>
        <g>
          <path class="cls-1" d="M301.25,193.66c1.68.28,3.43-1.04,3.43-1.04-.11,2.7-2.48,3.28-5.36,3.16-2.88-.12-5.18-1.04-5.07-3.6,2.59-.99,4.37,1.05,7.01,1.48Z"/>
          <path class="cls-1" d="M297.18,191.54c-1.67-.38-2.93.65-2.93.65.12-2.7,2.48-3.28,5.36-3.16,2.88.12,5.18,1.04,5.07,3.6-4.04,1.33-4.65-.44-7.5-1.09Z"/>
        </g>
        <g>
          <path class="cls-1" d="M291,159.32c1.68.28,3.43-1.04,3.43-1.04-.11,2.7-2.48,3.28-5.36,3.16-2.88-.12-5.18-1.04-5.07-3.6,2.59-.99,4.37,1.05,7.01,1.48Z"/>
          <path class="cls-1" d="M286.93,157.21c-1.67-.38-2.93.65-2.93.65.12-2.7,2.48-3.28,5.36-3.16,2.88.12,5.18,1.04,5.07,3.6-4.04,1.33-4.65-.44-7.5-1.09Z"/>
        </g>
        <g>
          <path class="cls-1" d="M289.52,189.03c1.68.28,3.43-1.04,3.43-1.04-.11,2.7-2.48,3.28-5.36,3.16-2.88-.12-5.18-1.04-5.07-3.6,2.59-.99,4.37,1.05,7.01,1.48Z"/>
          <path class="cls-1" d="M285.44,186.92c-1.67-.38-2.93.65-2.93.65.12-2.7,2.48-3.28,5.36-3.16,2.88.12,5.18,1.04,5.07,3.6-4.04,1.33-4.65-.44-7.5-1.09Z"/>
        </g>
        <g>
          <path class="cls-1" d="M198.07,133.09c.71,1.55,2.79,2.25,2.79,2.25-2.3,1.42-4.11-.21-5.62-2.67-1.52-2.45-2.04-4.87.13-6.22,2.27,1.59,1.58,4.21,2.7,6.63Z"/>
          <path class="cls-1" d="M197.54,128.53c-.62-1.59-2.18-2.07-2.18-2.07,2.3-1.42,4.11.21,5.62,2.67,1.52,2.45,2.04,4.88-.13,6.22-3.37-2.59-2.24-4.09-3.31-6.82Z"/>
        </g>
        <g>
          <path class="cls-1" d="M189.08,129.9c.73.72,2.04.68,2.04.68-1,1.28-2.36.74-3.73-.32-1.37-1.07-2.17-2.32-1.23-3.53,1.61.42,1.77,2.04,2.91,3.17Z"/>
          <path class="cls-1" d="M187.82,127.44c-.68-.77-1.66-.71-1.66-.71,1-1.28,2.36-.74,3.73.32,1.37,1.07,2.18,2.32,1.23,3.53-2.44-.76-2.12-1.84-3.29-3.15Z"/>
        </g>
        <g>
          <path class="cls-1" d="M180.91,129.6c1.08.61,2.59.15,2.59.15-.75,1.8-2.5,1.61-4.43.81-1.93-.8-3.26-2-2.55-3.71,2.01-.03,2.71,1.81,4.39,2.75Z"/>
          <path class="cls-1" d="M178.67,127.15c-1.04-.67-2.16-.29-2.16-.29.75-1.8,2.5-1.61,4.43-.81,1.93.8,3.26,2,2.55,3.71-3.08-.1-3.05-1.46-4.83-2.61Z"/>
        </g>
        <g>
          <path class="cls-1" d="M169.91,133.27c2.38.92,5.34-.48,5.34-.48-.99,3.92-4.64,4.05-8.82,2.99-4.19-1.06-7.28-3.11-6.34-6.83,4.1-.66,6.09,2.88,9.82,4.32Z"/>
          <path class="cls-1" d="M164.59,128.92c-2.33-1.06-4.5.05-4.5.05.99-3.92,4.64-4.05,8.82-3,4.19,1.06,7.28,3.11,6.34,6.83-6.33.73-6.68-2.06-10.67-3.88Z"/>
        </g>
        <g>
          <path class="cls-1" d="M155.27,135.55c.19,1.7,1.93,3.02,1.93,3.02-2.63.61-3.83-1.51-4.48-4.31-.66-2.81-.39-5.27,2.1-5.86,1.65,2.23.16,4.49.45,7.15Z"/>
          <path class="cls-1" d="M156.22,131.06c-.08-1.7-1.41-2.65-1.41-2.65,2.63-.61,3.83,1.51,4.49,4.31.66,2.81.39,5.27-2.1,5.86-2.37-3.53-.82-4.6-.97-7.52Z"/>
        </g>
        <g>
          <path class="cls-1" d="M172.42,168.25c.14,1.22,1.39,2.18,1.39,2.18-1.9.44-2.76-1.09-3.24-3.12-.47-2.03-.28-3.81,1.52-4.23,1.19,1.61.12,3.24.33,5.16Z"/>
          <path class="cls-1" d="M173.1,165.01c-.06-1.23-1.02-1.91-1.02-1.91,1.9-.44,2.76,1.09,3.24,3.12.47,2.03.28,3.81-1.52,4.23-1.71-2.55-.6-3.32-.7-5.43Z"/>
        </g>
        <g>
          <path class="cls-1" d="M166,163.95c-.67,1.04-.29,2.57-.29,2.57-1.75-.85-1.46-2.58-.56-4.46.9-1.87,2.18-3.14,3.84-2.33-.09,2-1.95,2.59-2.99,4.22Z"/>
          <path class="cls-1" d="M168.57,161.85c.73-1,.41-2.13.41-2.13,1.75.85,1.46,2.58.56,4.46-.91,1.87-2.18,3.14-3.84,2.33.27-3.06,1.62-2.95,2.87-4.66Z"/>
        </g>
        <g>
          <path class="cls-1" d="M173.95,217.32c1.14,1.27,3.33,1.32,3.33,1.32-1.77,2.03-3.99,1.02-6.16-.88-2.18-1.89-3.4-4.05-1.72-5.98,2.64.84,2.76,3.55,4.55,5.53Z"/>
          <path class="cls-1" d="M172.09,213.13c-1.07-1.33-2.7-1.32-2.7-1.32,1.77-2.04,3.99-1.02,6.16.87,2.18,1.89,3.4,4.05,1.72,5.98-3.99-1.47-3.36-3.24-5.19-5.53Z"/>
        </g>
        <g>
          <path class="cls-1" d="M246.15,228.27c.19,1.7,1.93,3.02,1.93,3.02-2.63.61-3.83-1.51-4.48-4.31-.66-2.81-.39-5.27,2.1-5.86,1.65,2.23.16,4.49.45,7.15Z"/>
          <path class="cls-1" d="M247.1,223.78c-.08-1.71-1.41-2.65-1.41-2.65,2.63-.61,3.83,1.51,4.49,4.31.66,2.81.39,5.27-2.11,5.86-2.37-3.53-.82-4.6-.97-7.52Z"/>
        </g>
        <g>
          <path class="cls-1" d="M250.14,188.7c2.95,1.92,7.34.87,7.34.87-2.45,4.99-7.4,4.14-12.74,1.52-5.34-2.62-8.92-6.27-6.6-11.01,5.72.28,7.38,5.62,12,8.62Z"/>
          <path class="cls-1" d="M244.2,181.32c-2.83-2.09-6.07-1.21-6.07-1.21,2.45-4.99,7.4-4.14,12.75-1.52,5.34,2.62,8.92,6.27,6.59,11.01-8.73-.83-8.41-4.69-13.27-8.28Z"/>
        </g>
        <g>
          <path class="cls-1" d="M275.04,190.9c3.35,1.09,7.32-1.04,7.32-1.04-1.08,5.46-6.09,5.9-11.93,4.74-5.83-1.16-10.23-3.77-9.2-8.94,5.6-1.19,8.57,3.53,13.81,5.24Z"/>
          <path class="cls-1" d="M267.41,185.3c-3.27-1.3-6.18.39-6.18.39,1.09-5.46,6.09-5.9,11.93-4.74,5.83,1.16,10.23,3.77,9.2,8.95-8.65,1.44-9.33-2.37-14.95-4.59Z"/>
        </g>
        <g>
          <path class="cls-1" d="M224.95,193.56c-.95,2.83.83,6.21.83,6.21-4.61-.96-4.95-5.2-3.93-10.14,1.03-4.94,3.27-8.64,7.65-7.73.97,4.75-3.06,7.24-4.55,11.66Z"/>
          <path class="cls-1" d="M229.75,187.14c1.12-2.76-.28-5.24-.28-5.24,4.62.96,4.96,5.21,3.93,10.14-1.03,4.93-3.27,8.64-7.65,7.73-1.15-7.34,2.08-7.89,4-12.63Z"/>
        </g>
        <g>
          <path class="cls-1" d="M268.3,172.69c-1.54,2.95-.17,6.99-.17,6.99-4.92-1.86-4.56-6.6-2.57-11.86,1.99-5.26,5.11-8.96,9.78-7.19.24,5.41-4.63,7.45-7.04,12.06Z"/>
          <path class="cls-1" d="M274.71,166.44c1.72-2.85.6-5.83.6-5.83,4.92,1.86,4.56,6.6,2.57,11.86-1.99,5.26-5.11,8.96-9.78,7.19,0-8.29,3.66-8.34,6.61-13.23Z"/>
        </g>
        <g>
          <path class="cls-1" d="M284.47,176.21c-.95,2.83.83,6.21.83,6.21-4.61-.96-4.95-5.2-3.93-10.14,1.03-4.94,3.27-8.64,7.65-7.73.97,4.75-3.06,7.24-4.55,11.66Z"/>
          <path class="cls-1" d="M289.27,169.78c1.12-2.76-.28-5.24-.28-5.24,4.62.96,4.96,5.21,3.93,10.14-1.03,4.93-3.27,8.64-7.65,7.73-1.15-7.34,2.08-7.89,4-12.63Z"/>
        </g>
        <g>
          <path class="cls-1" d="M263.59,152.72c-2.05,1.29-2.67,4.34-2.67,4.34-2.42-2.98-.45-5.83,2.73-8.41,3.18-2.58,6.5-3.77,8.79-.94-1.83,3.5-5.65,2.99-8.86,5.01Z"/>
          <path class="cls-1" d="M269.92,151.13c2.13-1.17,2.51-3.45,2.51-3.45,2.42,2.98.45,5.83-2.73,8.41-3.18,2.58-6.5,3.77-8.79.95,3.04-5.22,5.36-3.91,9.01-5.91Z"/>
        </g>
        <g>
          <path class="cls-1" d="M235.97,198.66c-2.54,1.57-3.32,5.31-3.32,5.31-2.94-3.68-.5-7.17,3.44-10.31,3.94-3.15,8.03-4.57,10.82-1.08-2.28,4.28-6.97,3.62-10.94,6.08Z"/>
          <path class="cls-1" d="M243.77,196.77c2.63-1.41,3.12-4.22,3.12-4.22,2.94,3.68.5,7.17-3.44,10.31-3.94,3.15-8.03,4.57-10.82,1.08,3.79-6.39,6.63-4.75,11.14-7.18Z"/>
        </g>
      </g>
    </g>
  </g>
  <g>
    <path class="cls-1" d="M97.62,117.24c.65.59.94,1.34.88,2.25-.06.91-.44,1.78-1.15,2.63-2.91,3.49-5.67,7.2-8.25,11.13-.63.95-1.36,1.6-2.22,1.92-.86.33-1.66.27-2.41-.19-10.25-6.28-20.5-12.56-30.75-18.84-.75-.46-1.11-1.25-1.06-2.38.05-1.13.5-2.35,1.35-3.64,3.49-5.32,7.23-10.35,11.17-15.08.96-1.15,1.98-1.9,3.03-2.27,1.05-.36,1.91-.24,2.56.35,2.43,2.18,4.85,4.36,7.28,6.54-1.3,1.46-2.58,2.95-3.83,4.48-2.43-2.01-4.85-4.02-7.28-6.03-3.31,4.04-6.47,8.29-9.45,12.75,9.81,6.58,19.61,13.16,29.42,19.74,2.31-3.46,4.76-6.75,7.32-9.88-2.65-2.2-5.31-4.4-7.96-6.6,1.12-1.36,2.26-2.7,3.42-4.01,2.65,2.38,5.29,4.75,7.94,7.13Z"/>
    <path class="cls-1" d="M120.25,101.09c-1.15.8-2.29,1.63-3.42,2.48-.15-.19-.29-.39-.44-.58-1.25,1.19-2.48,2.4-3.69,3.63-1.51,1.52-2.72,2.73-3.68,3.6-1.76,1.59-3.28,1.74-4.62.34-2.19-2.3-4.38-4.61-6.58-6.91-1.39-1.44-1.08-3.16,1-5.04,2.87-2.58,5.84-5.02,8.88-7.31-1.57-2.1-3.15-4.2-4.72-6.3-2.95,2.21-5.82,4.56-8.61,7.04.98,1.12,1.97,2.23,2.95,3.35-1.22,1.08-2.43,2.19-3.62,3.32-1.01-1.07-2.02-2.14-3.03-3.2-1.39-1.46-1.01-3.26,1.22-5.26,3.18-2.85,6.47-5.53,9.84-8.04,2.37-1.76,4.16-1.74,5.31-.08,4.4,6.33,8.81,12.65,13.21,18.98ZM114.93,100.93c-1.85-2.47-3.7-4.93-5.55-7.4-2.83,2.13-5.59,4.38-8.26,6.77,2.08,2.35,4.16,4.7,6.24,7.04,2.45-2.26,4.98-4.39,7.57-6.41Z"/>
    <path class="cls-1" d="M121.58,55.61c-2.39,1.1-4.75,2.27-7.09,3.49,1.99,3.77,3.97,7.53,5.96,11.3,1.9-1,3.81-1.95,5.74-2.85.45.95.9,1.9,1.34,2.84-1.89.89-3.76,1.82-5.62,2.79,3.58,6.79,7.16,13.57,10.74,20.36-1.23.64-2.44,1.31-3.65,2-3.82-6.66-7.63-13.31-11.45-19.97-1.24.71-2.48,1.44-3.7,2.19-.55-.89-1.1-1.79-1.65-2.68,1.25-.77,2.51-1.51,3.78-2.24-2.14-3.72-4.27-7.45-6.41-11.17-1.01-1.75-.13-3.45,2.71-4.97,2.62-1.39,5.27-2.71,7.95-3.95.44.95.88,1.9,1.33,2.85Z"/>
    <path class="cls-1" d="M158.57,80.51c.48,1.97-.41,3.21-2.65,3.83-3.21.89-6.4,1.92-9.54,3.09-2.19.82-3.66.34-4.43-1.54-2.54-6.19-5.07-12.39-7.61-18.58-.77-1.87.17-3.36,2.86-4.37,3.83-1.42,7.72-2.68,11.64-3.77,2.75-.76,4.39-.1,4.87,1.86.76,3.04,1.52,6.08,2.28,9.12-.41.53-.81,1.07-1.2,1.61-4.12,1.07-8.2,2.33-12.22,3.8,1.09,2.96,2.19,5.92,3.28,8.87,2.88-1.05,5.8-2,8.74-2.83-.44-1.53-.88-3.07-1.32-4.6,1.38-.39,2.76-.76,4.15-1.1.38,1.53.76,3.06,1.15,4.59ZM151.2,69.79c-.72-2.52-1.44-5.05-2.17-7.57-3.43.97-6.83,2.07-10.19,3.3.91,2.46,1.82,4.92,2.73,7.39,3.17-1.16,6.38-2.2,9.62-3.11ZM148.56,50.43c-2.66,2.84-5.16,5.74-7.52,8.71-1.14.38-2.28.78-3.42,1.19-.02-.05-.04-.1-.06-.15,1.13-2.59,2.35-5.17,3.65-7.73,2.42-.77,4.86-1.47,7.31-2.11,0,.03.02.07.03.1Z"/>
    <path class="cls-1" d="M203.41,73.31c-.27,2.21-1.38,3.9-3.24,5.14-1.86,1.25-4.03,1.78-6.59,1.66-3.71-.17-7.42-.17-11.13,0-.66-13.99-1.31-27.99-1.97-41.98,5.02-.23,10.06-.23,15.08,0,3.51.16,6.36,1.12,8.45,2.76,2.09,1.64,2.96,3.59,2.68,5.79-1.09,8.88-2.19,17.75-3.28,26.63ZM198.87,72.47c.75-8.68,1.5-17.36,2.25-26.04.12-1.37-.43-2.54-1.69-3.49-1.26-.94-2.96-1.48-5.08-1.56-2.65-.11-5.31-.14-7.97-.12.12,11.81.24,23.61.37,35.42,1.97-.02,3.94,0,5.92.08,1.72.06,3.14-.26,4.29-1.02,1.14-.75,1.79-1.84,1.92-3.28Z"/>
    <path class="cls-1" d="M222.98,52.19c-1.74-.41-3.48-.79-5.22-1.13.3-1.47.6-2.95.89-4.42,1.8.36,3.59.75,5.38,1.17-.35,1.46-.7,2.93-1.05,4.39ZM215.5,83.17c-1.33-.31-2.66-.6-3.99-.87,1.73-8.54,3.46-17.08,5.19-25.62,1.63.32,3.26.68,4.88,1.06-2.02,8.48-4.04,16.95-6.07,25.43Z"/>
    <path class="cls-1" d="M251.54,68.38c-6.63,6.5-12.78,13.33-18.45,20.46-1.17-.48-2.36-.94-3.54-1.38.69-9.06.83-18.24.41-27.48,1.67.5,3.33,1.03,4.99,1.59-.22,7.17-.74,14.29-1.55,21.34,4.23-5.72,8.73-11.29,13.49-16.69,1.56.69,3.11,1.41,4.65,2.16Z"/>
    <path class="cls-1" d="M273.74,71.36c-3.97-.18-7.87-.18-11.7-.01-1.06-.62-2.12-1.22-3.19-1.8.03-.05.05-.09.08-.14,2.72-.85,5.49-1.63,8.32-2.32,2.22,1.33,4.4,2.73,6.56,4.19-.02.03-.04.06-.06.09ZM250.06,97.36c-1.19-.73-2.39-1.43-3.6-2.12,4.3-7.59,8.6-15.18,12.9-22.76,1.48.83,2.94,1.7,4.39,2.59-4.56,7.43-9.13,14.86-13.69,22.3Z"/>
    <path class="cls-1" d="M271.49,114.27c-1.04-1.04-2.09-2.06-3.16-3.05,5.18-5.63,10.37-11.26,15.55-16.89-2.86-2.56-5.8-4.97-8.82-7.25-4.67,5.97-9.34,11.95-14.01,17.92-1.13-.89-2.27-1.75-3.43-2.59,5.12-7.06,10.24-14.12,15.36-21.18,1.41,1.03,2.81,2.08,4.19,3.17-.15.19-.3.38-.45.57,1.72,1.12,3.44,2.29,5.16,3.51,2.07,1.5,3.71,2.85,4.92,3.99,2.17,2.05,2.53,3.82,1.15,5.2-5.49,5.53-10.98,11.07-16.47,16.6Z"/>
    <path class="cls-1" d="M291.58,134.96c-1.73,1.05-3.28.43-4.72-1.77-2.14-3.25-4.4-6.36-6.77-9.31-1.59-1.97-1.65-3.57-.12-4.91,5.06-4.37,10.13-8.75,15.19-13.12,1.52-1.32,3.3-.84,5.25,1.58,2.89,3.61,5.65,7.39,8.26,11.36,1.77,2.7,1.74,4.63.01,5.68-5.7,3.49-11.4,6.99-17.1,10.48ZM289.09,130.86c5.5-3.68,11-7.35,16.5-11.03-2.26-3.39-4.62-6.64-7.09-9.75-5.17,4.13-10.34,8.27-15.51,12.4,2.12,2.68,4.16,5.47,6.09,8.38Z"/>
  </g>
</svg>