<?xml version="1.0" encoding="UTF-8"?>
<svg id="Capa_1" data-name="Capa 1" xmlns="http://www.w3.org/2000/svg" viewBox="0 0 362.18 362.18">
  <defs>
    <style>
      .cls-1 {
        fill: #352e35;
      }

      .cls-1, .cls-2 {
        stroke-width: 0px;
      }

      .cls-2 {
        fill: #d7d2b8;
      }
    </style>
  </defs>
  <g>
    <circle class="cls-1" cx="181.09" cy="181.35" r="178.6"/>
    <circle class="cls-2" cx="181.09" cy="181.09" r="151.07" transform="translate(-75.01 181.09) rotate(-45)"/>
    <path class="cls-2" d="M181.09,16C89.91,16,16,89.91,16,181.09s73.92,165.09,165.09,165.09,165.09-73.91,165.09-165.09S272.27,16,181.09,16ZM181.09,337.78c-86.4,0-156.69-70.29-156.69-156.69S94.69,24.4,181.09,24.4s156.69,70.29,156.69,156.69-70.29,156.69-156.69,156.69Z"/>
    <path class="cls-2" d="M181.09,0C81.08,0,0,81.08,0,181.09s81.08,181.09,181.09,181.09,181.09-81.08,181.09-181.09S281.1,0,181.09,0ZM181.09,352.97c-94.77,0-171.88-77.1-171.88-171.88S86.32,9.21,181.09,9.21s171.88,77.1,171.88,171.88-77.1,171.88-171.88,171.88Z"/>
    <g>
      <path class="cls-1" d="M54.05,247.1c-.54-.68-1.04-1.39-1.5-2.13-.97-1.58-1.72-3.23-2.35-4.92-2.22-3.38-3.9-7.19-4.5-11.1-.27-1.71-.4-3.41-.46-5.11-.03-.08-.06-.16-.1-.24-.09-.2-.15-.39-.21-.59-1.4.66-2.94,1-4.51.98.02,0,.05,0,.07,0,.9,2.36,1.81,4.94,2.69,7.71,1.24,3.8,2.36,7.98,3.41,12.44.69,2.9,1.28,5.95,1.8,9.08,2.7,4.95,5.68,9.73,8.9,14.33-.32-3.54-.73-7.02-1.29-10.4-.57-3.46-1.21-6.82-1.95-10.05Z"/>
      <path class="cls-1" d="M36.84,223.27c-.34-.14-.66-.31-.96-.49,1.34,4.67,2.9,9.24,4.67,13.71-.3-1.29-.6-2.56-.92-3.78-.89-3.47-1.84-6.63-2.78-9.45Z"/>
      <path class="cls-1" d="M296.7,197.57c8.51,4.88,10.64,23.5-8.2,25.39.33,19.33-22.79,17.66-22.79,17.66,0,0-14.48,41.67-31.08,12.28-15.99,9.72-30.23-15.3-30.23-15.3,0,0-10.11-1.58-14.67-1.64-.45,0-.86-.08-1.23-.2-2.17,1.19-4.34,2.38-6.5,3.58h-3.9c.55.42,1.09.84,1.63,1.26-2.24,1.25-4.48,2.5-6.71,3.75-.69-.58-1.39-1.15-2.11-1.7-1.4-1.14-2.83-2.23-4.28-3.3h-20.9c1.37,1.25,2.73,2.52,4.07,3.81,3.04,3.05,6.02,6.17,8.81,9.4-2.24,1.29-4.46,2.57-6.66,3.85-2.28-2.89-4.71-5.71-7.18-8.5-2.74-2.94-5.56-5.82-8.47-8.56h-15.39c1.23,1.31,2.45,2.63,3.64,3.97,3.49,4.11,6.91,8.3,9.95,12.67,1.59,2.14,2.96,4.39,4.43,6.56.22.37.45.73.67,1.1-2.42,1.43-4.8,2.84-7.15,4.24-.21-.39-.42-.78-.63-1.18-1.28-2.12-2.46-4.33-3.85-6.45-2.65-4.31-5.68-8.48-8.8-12.59-1.09-1.37-2.2-2.72-3.32-4.07-1.15,2.29-2.51,4.41-4.09,6.27-.93,1.09-1.92,2.1-2.96,3.03,2.07,3.39,4.04,6.83,5.79,10.34,1.26,2.34,2.3,4.77,3.44,7.11.7,1.66,1.42,3.3,2.1,4.94-2.56,1.55-5.05,3.06-7.48,4.54-.69-2.11-1.5-4.21-2.26-6.36-.96-2.28-1.81-4.64-2.88-6.92-1.38-3.2-2.95-6.35-4.61-9.48-2.86,1.57-5.92,2.69-9.09,3.38,1.25,3.02,2.41,6.08,3.43,9.14.82,2.45,1.54,4.9,2.24,7.34.6,2.45,1.32,4.86,1.78,7.27.17.78.33,1.55.49,2.32-2.89,1.78-5.63,3.49-8.22,5.1-.21-1.92-.5-3.86-.81-5.83-.3-2.3-.85-4.59-1.28-6.94-.52-2.33-1.07-4.68-1.71-7.04-.95-3.52-2.07-7.04-3.33-10.54-4.09.05-8.23-.55-12.22-1.76h0c.91,2.72,1.79,5.5,2.56,8.34,1.46,5.33,2.8,10.81,3.73,16.37.55,2.77.86,5.58,1.27,8.37.08.82.17,1.64.25,2.46,26.54,23.11,61.2,37.11,99.07,37.11,80.06,0,145.77-62.61,150.75-141.44-6.38,1.99-18.26,3.55-26.83-2.42,2.45,3.39,1.32,8.6-8.31,9.27Z"/>
      <path class="cls-1" d="M70.88,269.3c-.92-4.22-2.05-8.34-3.25-12.34,0,0,0,0,0,0-2.51-1.15-4.99-2.48-7.28-4.06.26,1.09.52,2.19.77,3.3,1.09,4.89,1.9,10.01,2.57,15.24.21,1.74.37,3.49.52,5.24,3.06,3.73,6.29,7.31,9.68,10.73-.08-.73-.16-1.47-.27-2.2-.6-5.37-1.61-10.7-2.75-15.92Z"/>
      <g>
        <g>
          <path class="cls-1" d="M134.57,170.29c5.02-7.61,2.38-19,2.38-19,12.89,6.43,10.59,19.23,3.72,33.02-6.87,13.78-16.38,23-28.61,16.9.83-14.79,14.66-19.01,22.51-30.92Z"/>
          <path class="cls-1" d="M115.37,185.54c-5.47,7.29-3.24,15.7-3.24,15.7-12.89-6.43-10.59-19.23-3.72-33.02,6.87-13.78,16.38-23,28.61-16.9-2.29,22.59-12.27,21.7-21.65,34.21Z"/>
        </g>
        <g>
          <path class="cls-1" d="M67.6,214.61c-2.76-8.68-13.27-13.8-13.27-13.8,13.1-5.98,21.62,3.86,28.01,17.87,6.4,14.01,7.59,27.19-4.85,32.87-10.98-9.95-5.56-23.35-9.89-36.94Z"/>
          <path class="cls-1" d="M67.39,239.13c2.24,8.84,10.17,12.39,10.17,12.39-13.1,5.98-21.62-3.86-28.02-17.87-6.4-14.01-7.59-27.19,4.85-32.87,16.13,15.98,9.16,23.19,12.99,38.34Z"/>
        </g>
        <g>
          <path class="cls-1" d="M102.53,210.86c4.41-1.27,7.12-6.5,7.12-6.5,2.83,6.68-2.23,10.83-9.37,13.86-7.14,3.03-13.79,3.45-16.48-2.89,5.16-5.39,11.83-2.48,18.73-4.48Z"/>
          <path class="cls-1" d="M90.19,210.42c-4.48,1-6.38,4.95-6.38,4.95-2.83-6.68,2.23-10.83,9.37-13.86,7.14-3.03,13.79-3.45,16.48,2.89-8.26,7.9-11.8,4.3-19.48,6.02Z"/>
        </g>
        <g>
          <path class="cls-1" d="M109.39,229.08c2.02-4.84-.69-10.99-.69-10.99,7.98,2.25,8.05,9.74,5.64,18.27-2.41,8.53-6.79,14.75-14.36,12.62-1.12-8.45,6.25-12.32,9.41-19.89Z"/>
          <path class="cls-1" d="M100.17,239.75c-2.31,4.71-.15,9.22-.15,9.22-7.98-2.25-8.05-9.74-5.64-18.27,2.41-8.53,6.79-14.75,14.36-12.62,1.13,13.01-4.61,13.58-8.57,21.66Z"/>
        </g>
        <g>
          <path class="cls-1" d="M86.87,199.23c3.32-.05,6.2-3.17,6.2-3.17.71,5.19-3.61,7.12-9.17,7.88-5.55.75-10.27-.21-10.94-5.14,4.62-2.78,8.72.52,13.9.44Z"/>
          <path class="cls-1" d="M78.35,196.58c-3.31-.15-5.39,2.24-5.39,2.24-.71-5.19,3.61-7.12,9.17-7.88,5.55-.76,10.27.22,10.94,5.14-7.26,3.94-9.04.75-14.72.5Z"/>
        </g>
        <g>
          <path class="cls-1" d="M126.45,216.51c2.97,2.02,7.46,1.04,7.46,1.04-2.6,5.04-7.63,4.06-13.02,1.28-5.39-2.78-8.96-6.57-6.49-11.35,5.82.41,7.4,5.88,12.04,9.03Z"/>
          <path class="cls-1" d="M120.55,208.87c-2.84-2.19-6.16-1.36-6.16-1.36,2.6-5.04,7.63-4.06,13.02-1.28,5.39,2.78,8.96,6.57,6.49,11.35-8.88-1.03-8.47-4.95-13.34-8.71Z"/>
        </g>
        <g>
          <path class="cls-1" d="M130.97,232.77c3.08,1.22,6.94-.56,6.94-.56-1.33,5.07-6.06,5.2-11.48,3.78-5.42-1.42-9.4-4.12-8.14-8.93,5.33-.8,7.86,3.81,12.68,5.72Z"/>
          <path class="cls-1" d="M124.12,227.07c-3-1.41-5.83.01-5.83.01,1.33-5.07,6.06-5.2,11.48-3.78,5.42,1.43,9.41,4.13,8.14,8.93-8.22.86-8.64-2.76-13.79-5.17Z"/>
        </g>
        <g>
          <path class="cls-1" d="M92.18,254.2c2.5-.43,4.31-3.14,4.31-3.14,1.15,3.84-1.88,5.82-5.99,7.05-4.11,1.23-7.79,1.06-8.88-2.58,3.16-2.65,6.65-.65,10.56-1.33Z"/>
          <path class="cls-1" d="M85.43,253.21c-2.52.28-3.8,2.34-3.8,2.34-1.15-3.84,1.88-5.82,5.99-7.05,4.1-1.23,7.79-1.06,8.88,2.58-5.02,3.84-6.74,1.65-11.06,2.13Z"/>
        </g>
        <g>
          <path class="cls-1" d="M150.28,235.37c2.39,1.51,5.9.63,5.9.63-1.92,4.03-5.9,3.39-10.21,1.35-4.31-2.05-7.22-4.94-5.4-8.77,4.59.17,5.97,4.43,9.71,6.8Z"/>
          <path class="cls-1" d="M145.44,229.51c-2.29-1.65-4.88-.91-4.88-.91,1.92-4.03,5.9-3.39,10.21-1.34,4.31,2.05,7.22,4.94,5.4,8.77-7.01-.58-6.8-3.68-10.73-6.51Z"/>
        </g>
        <g>
          <path class="cls-1" d="M187.55,230.52c2.39,1.51,5.9.63,5.9.63-1.92,4.03-5.9,3.39-10.21,1.35-4.31-2.05-7.22-4.94-5.4-8.77,4.59.17,5.97,4.43,9.71,6.8Z"/>
          <path class="cls-1" d="M182.71,224.65c-2.29-1.65-4.88-.91-4.88-.91,1.92-4.03,5.9-3.39,10.21-1.34,4.31,2.05,7.22,4.94,5.4,8.77-7.01-.58-6.8-3.68-10.73-6.51Z"/>
        </g>
        <g>
          <path class="cls-1" d="M150.85,221.69c1.73-.38,2.91-2.32,2.91-2.32.92,2.65-1.14,4.12-3.97,5.1-2.83.98-5.41.97-6.28-1.54,2.13-1.95,4.63-.65,7.34-1.24Z"/>
          <path class="cls-1" d="M146.1,221.2c-1.75.27-2.59,1.75-2.59,1.75-.92-2.65,1.14-4.12,3.97-5.1,2.83-.99,5.41-.98,6.28,1.54-3.39,2.83-4.66,1.35-7.67,1.82Z"/>
        </g>
        <g>
          <path class="cls-1" d="M193.82,219.63c1.17-.25,1.97-1.57,1.97-1.57.62,1.79-.77,2.79-2.69,3.45-1.92.67-3.66.66-4.25-1.04,1.44-1.32,3.13-.44,4.96-.84Z"/>
          <path class="cls-1" d="M190.61,219.31c-1.19.18-1.75,1.18-1.75,1.18-.62-1.79.77-2.79,2.69-3.45,1.92-.67,3.66-.66,4.25,1.04-2.29,1.91-3.15.91-5.19,1.23Z"/>
        </g>
        <g>
          <path class="cls-1" d="M99.28,173.89c1.4-.97,1.73-3.12,1.73-3.12,1.79,2.01.5,4.06-1.65,5.97-2.15,1.91-4.43,2.84-6.12.94,1.17-2.5,3.86-2.27,6.04-3.79Z"/>
          <path class="cls-1" d="M94.89,175.2c-1.45.88-1.65,2.49-1.65,2.49-1.78-2.01-.5-4.06,1.65-5.98,2.15-1.91,4.43-2.84,6.13-.94-1.96,3.75-3.63,2.9-6.12,4.42Z"/>
        </g>
        <g>
          <path class="cls-1" d="M141.24,198.05c1.48-2.46.51-6.01.51-6.01,4.14,1.86,3.58,5.92,1.59,10.34-1.99,4.42-4.86,7.44-8.79,5.68.07-4.67,4.37-6.16,6.69-10.01Z"/>
          <path class="cls-1" d="M135.39,203.09c-1.63,2.37-.82,4.98-.82,4.98-4.14-1.86-3.58-5.92-1.59-10.34,1.99-4.42,4.86-7.44,8.79-5.68-.44,7.13-3.59,6.98-6.38,11.04Z"/>
        </g>
        <g>
          <path class="cls-1" d="M70.54,189.73c2.22-1.54,2.75-4.96,2.75-4.96,2.84,3.19.79,6.46-2.62,9.49-3.41,3.03-7.04,4.52-9.73,1.49,1.86-3.98,6.13-3.61,9.6-6.02Z"/>
          <path class="cls-1" d="M63.58,191.81c-2.31,1.41-2.62,3.96-2.62,3.96-2.84-3.19-.79-6.46,2.62-9.49,3.41-3.03,7.04-4.52,9.73-1.49-3.12,5.96-5.77,4.62-9.73,7.02Z"/>
        </g>
        <g>
          <path class="cls-1" d="M166.29,230.78c2.43,3.29,7.63,3.95,7.63,3.95-4.7,4.43-9.74,1.48-14.47-3.55-4.74-5.03-7.14-10.46-2.68-14.66,6.1,2.64,5.73,9.12,9.53,14.27Z"/>
          <path class="cls-1" d="M162.85,220.34c-2.22-3.43-6.11-3.8-6.11-3.8,4.7-4.43,9.74-1.48,14.48,3.55,4.74,5.03,7.14,10.46,2.68,14.66-9.15-4.46-7.23-8.53-11.04-14.42Z"/>
        </g>
        <g>
          <path class="cls-1" d="M92.33,188.04c2.58,1.47,6.23.39,6.23.39-1.83,4.32-6.04,3.84-10.66,1.89-4.62-1.95-7.81-4.86-6.08-8.96,4.83-.03,6.48,4.38,10.52,6.69Z"/>
          <path class="cls-1" d="M86.98,182.11c-2.48-1.63-5.17-.73-5.17-.73,1.83-4.32,6.04-3.84,10.66-1.89,4.62,1.95,7.81,4.86,6.08,8.96-7.39-.28-7.31-3.55-11.57-6.34Z"/>
        </g>
      </g>
      <g>
        <g>
          <path class="cls-1" d="M220.89,236.46c4.3,8.04,15.56,11.15,15.56,11.15-11.8,8.26-21.96.14-30.79-12.48-8.84-12.61-12.4-25.36-1.21-33.2,12.61,7.79,9.72,21.95,16.44,34.53Z"/>
          <path class="cls-1" d="M216.64,212.31c-3.8-8.28-12.26-10.34-12.26-10.34,11.79-8.26,21.96-.14,30.79,12.48,8.84,12.61,12.4,25.36,1.21,33.2-18.76-12.79-13.22-21.14-19.75-35.34Z"/>
        </g>
        <g>
          <path class="cls-1" d="M263.31,224.53c3.44,6.43,12.45,8.92,12.45,8.92-9.44,6.61-17.57.11-24.64-9.98-7.07-10.09-9.92-20.29-.96-26.57,10.09,6.23,7.77,17.56,13.15,27.62Z"/>
          <path class="cls-1" d="M259.91,205.21c-3.05-6.63-9.81-8.27-9.81-8.27,9.44-6.61,17.57-.11,24.64,9.98,7.07,10.09,9.92,20.29.97,26.57-15.01-10.23-10.58-16.91-15.8-28.28Z"/>
        </g>
        <g>
          <path class="cls-1" d="M288.01,210.01c2.08,3.89,7.54,5.4,7.54,5.4-5.71,4-10.63.07-14.91-6.04-4.28-6.11-6.01-12.28-.58-16.08,6.1,3.77,4.7,10.63,7.96,16.72Z"/>
          <path class="cls-1" d="M285.95,198.32c-1.84-4.01-5.94-5.01-5.94-5.01,5.71-4,10.63-.07,14.91,6.04,4.28,6.11,6.01,12.28.58,16.08-9.08-6.19-6.4-10.24-9.56-17.11Z"/>
        </g>
        <g>
          <path class="cls-1" d="M199.91,165.84c7.17,5.63,18.74,3.94,18.74,3.94-7.47,12.31-20.04,8.97-33.21.98-13.17-7.99-21.57-18.22-14.48-29.91,14.67,2.05,17.73,16.18,28.95,24.98Z"/>
          <path class="cls-1" d="M186.29,145.45c-6.82-6.05-15.38-4.53-15.38-4.53,7.47-12.31,20.04-8.97,33.21-.98,13.17,7.99,21.57,18.22,14.48,29.91-22.32-4.15-20.61-14.02-32.31-24.4Z"/>
        </g>
        <g>
          <path class="cls-1" d="M188.8,194.92c-.98,4.48,2.31,9.36,2.31,9.36-7.22-.69-8.45-7.13-7.71-14.85.74-7.72,3.54-13.77,10.4-13.11,2.28,7.1-3.46,11.58-5,18.6Z"/>
          <path class="cls-1" d="M195.07,184.28c1.25-4.41-1.31-7.97-1.31-7.97,7.22.69,8.46,7.13,7.71,14.85-.74,7.72-3.54,13.77-10.4,13.11-3-11.03,1.85-12.42,4-19.99Z"/>
        </g>
        <g>
          <path class="cls-1" d="M154.09,195.19c-1.53,7,3.61,14.6,3.61,14.6-11.27-1.08-13.19-11.12-12.04-23.17,1.16-12.05,5.53-21.48,16.22-20.46,3.56,11.08-5.4,18.07-7.8,29.02Z"/>
          <path class="cls-1" d="M163.87,178.6c1.95-6.89-2.05-12.43-2.05-12.43,11.27,1.08,13.19,11.12,12.03,23.17-1.16,12.05-5.53,21.48-16.22,20.46-4.69-17.21,2.89-19.38,6.24-31.19Z"/>
        </g>
        <g>
          <path class="cls-1" d="M244.45,248.45c-2.74,3.68-1.74,9.48-1.74,9.48-6.29-3.6-4.77-9.98-.92-16.71,3.85-6.73,8.89-11.09,14.87-7.67-.84,7.41-7.92,9.14-12.2,14.9Z"/>
          <path class="cls-1" d="M254.54,241.33c2.96-3.51,2.08-7.8,2.08-7.8,6.3,3.6,4.77,9.98.92,16.71-3.85,6.73-8.89,11.09-14.87,7.67,1.8-11.29,6.79-10.56,11.87-16.58Z"/>
        </g>
        <g>
          <path class="cls-1" d="M228.34,150.8c3.29,4.08,9.99,4.64,9.99,4.64-5.78,5.94-12.4,2.43-18.75-3.75-6.35-6.18-9.73-13.01-4.24-18.64,7.96,3.05,7.84,11.37,12.99,17.76Z"/>
          <path class="cls-1" d="M223.35,137.61c-3.04-4.27-8.04-4.53-8.04-4.53,5.78-5.94,12.4-2.43,18.74,3.75,6.35,6.18,9.73,13.01,4.24,18.64-11.98-5.22-9.74-10.53-14.95-17.86Z"/>
        </g>
        <g>
          <path class="cls-1" d="M209.93,190.48c-1.54,2.94-.17,6.96-.17,6.96-4.9-1.85-4.54-6.57-2.55-11.81,1.98-5.24,5.08-8.92,9.74-7.16.24,5.38-4.61,7.42-7.01,12.01Z"/>
          <path class="cls-1" d="M216.32,184.26c1.71-2.84.6-5.8.6-5.8,4.9,1.85,4.54,6.57,2.56,11.81-1.99,5.24-5.09,8.92-9.74,7.16,0-8.26,3.65-8.3,6.58-13.17Z"/>
        </g>
        <g>
          <path class="cls-1" d="M228.7,166.38c-4.48.91-7.59,5.87-7.59,5.87-2.28-6.85,3.08-10.56,10.41-13,7.32-2.43,13.96-2.32,16.12,4.18-5.54,4.94-11.93,1.52-18.94,2.95Z"/>
          <path class="cls-1" d="M240.9,167.8c4.52-.64,6.72-4.41,6.72-4.41,2.28,6.85-3.08,10.57-10.41,13-7.32,2.43-13.96,2.32-16.12-4.18,8.83-7.18,12.05-3.32,19.8-4.41Z"/>
        </g>
        <g>
          <path class="cls-1" d="M302.74,163.37c-4.48.91-7.59,5.87-7.59,5.87-2.28-6.85,3.08-10.56,10.41-13,7.32-2.43,13.96-2.32,16.12,4.18-5.54,4.94-11.93,1.52-18.94,2.95Z"/>
          <path class="cls-1" d="M314.94,164.79c4.52-.64,6.72-4.41,6.72-4.41,2.28,6.85-3.08,10.57-10.41,13-7.32,2.43-13.96,2.32-16.12-4.18,8.83-7.18,12.05-3.32,19.8-4.41Z"/>
        </g>
        <g>
          <path class="cls-1" d="M246.43,140.29c-1.15-2.12-4.14-2.92-4.14-2.92,3.11-2.21,5.81-.08,8.18,3.24,2.36,3.32,3.33,6.69.38,8.79-3.35-2.04-2.61-5.79-4.42-9.11Z"/>
          <path class="cls-1" d="M247.6,146.67c1.02,2.18,3.26,2.71,3.26,2.71-3.11,2.21-5.81.08-8.18-3.24-2.36-3.32-3.33-6.69-.38-8.79,4.99,3.35,3.54,5.57,5.29,9.32Z"/>
        </g>
        <g>
          <path class="cls-1" d="M160.28,145.91c-.97,2.36.36,5.35.36,5.35-3.88-1.08-3.94-4.72-2.79-8.87,1.15-4.15,3.27-7.19,6.96-6.17.56,4.11-3.01,6.01-4.53,9.7Z"/>
          <path class="cls-1" d="M164.73,140.69c1.11-2.3.05-4.49.05-4.49,3.88,1.08,3.94,4.72,2.78,8.87-1.15,4.15-3.27,7.19-6.96,6.17-.58-6.33,2.21-6.62,4.12-10.55Z"/>
        </g>
        <g>
          <path class="cls-1" d="M175.19,204.25c-.81,2.4.7,5.28.7,5.28-3.92-.82-4.21-4.43-3.34-8.62.87-4.2,2.78-7.35,6.5-6.57.83,4.04-2.6,6.15-3.87,9.92Z"/>
          <path class="cls-1" d="M179.28,198.79c.95-2.35-.24-4.46-.24-4.46,3.92.82,4.21,4.43,3.34,8.62-.87,4.2-2.78,7.35-6.5,6.57-.98-6.24,1.77-6.71,3.4-10.74Z"/>
        </g>
        <g>
          <path class="cls-1" d="M177.47,189.24c-.63,1.86.54,4.08.54,4.08-3.03-.63-3.26-3.42-2.58-6.67.67-3.24,2.15-5.68,5.03-5.08.64,3.12-2.01,4.76-2.99,7.67Z"/>
          <path class="cls-1" d="M180.62,185.01c.74-1.82-.19-3.45-.19-3.45,3.03.63,3.26,3.42,2.58,6.67-.68,3.24-2.15,5.68-5.03,5.08-.76-4.83,1.37-5.19,2.63-8.31Z"/>
        </g>
        <g>
          <path class="cls-1" d="M182.95,212.88c-2.16,1.33-2.82,4.52-2.82,4.52-2.5-3.13-.42-6.1,2.93-8.77,3.35-2.67,6.83-3.89,9.2-.91-1.94,3.64-5.93,3.08-9.3,5.17Z"/>
          <path class="cls-1" d="M189.58,211.28c2.23-1.2,2.66-3.58,2.66-3.58,2.5,3.13.42,6.1-2.93,8.77-3.35,2.67-6.83,3.89-9.2.92,3.23-5.43,5.64-4.04,9.47-6.1Z"/>
        </g>
        <g>
          <path class="cls-1" d="M179.12,172.18c-1.51-1.68-4.41-1.77-4.41-1.77,2.35-2.69,5.28-1.33,8.15,1.18,2.87,2.52,4.49,5.38,2.25,7.93-3.5-1.13-3.64-4.71-6-7.34Z"/>
          <path class="cls-1" d="M181.57,177.74c1.41,1.77,3.56,1.76,3.56,1.76-2.35,2.69-5.28,1.33-8.16-1.18-2.87-2.51-4.49-5.37-2.25-7.93,5.27,1.97,4.43,4.31,6.85,7.34Z"/>
        </g>
        <g>
          <path class="cls-1" d="M157.27,159.69c-1.68,1.51-1.75,4.41-1.75,4.41-2.7-2.34-1.35-5.28,1.16-8.16,2.51-2.88,5.36-4.5,7.92-2.27-1.12,3.5-4.7,3.65-7.33,6.02Z"/>
          <path class="cls-1" d="M162.83,157.22c1.77-1.41,1.75-3.57,1.75-3.57,2.69,2.35,1.35,5.28-1.16,8.16-2.51,2.88-5.36,4.5-7.92,2.28,1.96-5.28,4.3-4.44,7.33-6.86Z"/>
        </g>
        <g>
          <path class="cls-1" d="M140.9,213.35c-1.8,1.11-2.36,3.76-2.36,3.76-2.09-2.61-.35-5.08,2.44-7.31,2.79-2.23,5.69-3.24,7.67-.76-1.62,3.03-4.94,2.57-7.76,4.31Z"/>
          <path class="cls-1" d="M146.43,212.02c1.86-1,2.21-2.99,2.21-2.99,2.08,2.61.35,5.08-2.44,7.31-2.79,2.23-5.69,3.24-7.67.76,2.69-4.53,4.7-3.37,7.9-5.09Z"/>
        </g>
        <g>
          <path class="cls-1" d="M239.75,217.38c.19,1.69,1.92,3.01,1.92,3.01-2.62.61-3.81-1.5-4.47-4.3-.65-2.8-.39-5.25,2.09-5.83,1.64,2.22.16,4.48.45,7.12Z"/>
          <path class="cls-1" d="M240.69,212.91c-.08-1.7-1.41-2.64-1.41-2.64,2.62-.61,3.81,1.5,4.47,4.3.65,2.8.39,5.25-2.1,5.83-2.36-3.52-.82-4.58-.96-7.49Z"/>
        </g>
        <g>
          <path class="cls-1" d="M207.24,135.1c.19,1.69,1.92,3.01,1.92,3.01-2.62.61-3.81-1.5-4.47-4.3-.65-2.8-.39-5.25,2.1-5.83,1.64,2.22.16,4.47.45,7.12Z"/>
          <path class="cls-1" d="M208.18,130.62c-.08-1.7-1.41-2.64-1.41-2.64,2.62-.61,3.81,1.5,4.47,4.3.65,2.8.39,5.25-2.09,5.83-2.36-3.51-.82-4.58-.97-7.49Z"/>
        </g>
        <g>
          <path class="cls-1" d="M247.81,154.9c1.68.28,3.41-1.04,3.41-1.04-.11,2.68-2.47,3.27-5.34,3.15-2.87-.12-5.16-1.04-5.05-3.58,2.58-.99,4.35,1.05,6.98,1.48Z"/>
          <path class="cls-1" d="M243.76,152.79c-1.66-.38-2.92.64-2.92.64.11-2.68,2.47-3.27,5.34-3.15,2.87.12,5.16,1.04,5.05,3.59-4.02,1.33-4.63-.44-7.47-1.08Z"/>
        </g>
        <g>
          <path class="cls-1" d="M256.41,160.85c-1.15-2.12-4.14-2.92-4.14-2.92,3.11-2.21,5.81-.08,8.18,3.24,2.36,3.32,3.33,6.69.38,8.79-3.35-2.04-2.61-5.79-4.42-9.11Z"/>
          <path class="cls-1" d="M257.59,167.23c1.02,2.18,3.26,2.71,3.26,2.71-3.11,2.21-5.81.08-8.18-3.24-2.36-3.32-3.33-6.69-.38-8.79,4.99,3.35,3.54,5.57,5.29,9.32Z"/>
        </g>
        <g>
          <path class="cls-1" d="M257.8,175.46c1.68.28,3.41-1.04,3.41-1.04-.11,2.68-2.47,3.27-5.34,3.15-2.87-.12-5.16-1.04-5.05-3.58,2.58-.99,4.35,1.05,6.98,1.48Z"/>
          <path class="cls-1" d="M253.74,173.35c-1.66-.38-2.92.64-2.92.64.11-2.68,2.47-3.27,5.34-3.15,2.87.12,5.16,1.04,5.05,3.59-4.02,1.33-4.63-.44-7.47-1.08Z"/>
        </g>
        <g>
          <path class="cls-1" d="M298.76,179.2c-1.15-2.12-4.14-2.92-4.14-2.92,3.11-2.21,5.81-.08,8.18,3.24,2.36,3.32,3.33,6.69.38,8.79-3.35-2.04-2.61-5.79-4.42-9.11Z"/>
          <path class="cls-1" d="M299.93,185.58c1.02,2.18,3.26,2.71,3.26,2.71-3.11,2.21-5.81.08-8.18-3.24-2.36-3.32-3.33-6.69-.38-8.79,4.99,3.35,3.54,5.57,5.29,9.32Z"/>
        </g>
        <g>
          <path class="cls-1" d="M313.85,179.68c-3.36-.67-6.96,1.87-6.96,1.87.41-5.41,5.2-6.43,10.98-5.99,5.78.44,10.34,2.44,9.95,7.57-5.27,1.81-8.71-2.41-13.98-3.45Z"/>
          <path class="cls-1" d="M321.89,184.21c3.32.87,5.93-1.1,5.93-1.1-.41,5.41-5.2,6.43-10.98,5.99-5.78-.44-10.34-2.44-9.95-7.57,8.2-2.41,9.31,1.19,15,2.68Z"/>
        </g>
        <g>
          <path class="cls-1" d="M300.15,193.81c1.68.28,3.41-1.04,3.41-1.04-.11,2.68-2.47,3.27-5.34,3.15-2.87-.12-5.16-1.04-5.05-3.58,2.58-.99,4.35,1.05,6.98,1.48Z"/>
          <path class="cls-1" d="M296.09,191.7c-1.66-.38-2.92.64-2.92.64.11-2.68,2.47-3.27,5.34-3.15,2.87.12,5.16,1.04,5.05,3.59-4.02,1.33-4.63-.44-7.47-1.08Z"/>
        </g>
        <g>
          <path class="cls-1" d="M289.94,159.61c1.68.28,3.41-1.04,3.41-1.04-.11,2.68-2.47,3.27-5.34,3.15-2.87-.12-5.16-1.04-5.05-3.58,2.58-.99,4.35,1.05,6.98,1.48Z"/>
          <path class="cls-1" d="M285.88,157.5c-1.66-.38-2.92.64-2.92.64.11-2.68,2.47-3.27,5.34-3.15,2.87.12,5.16,1.04,5.05,3.59-4.02,1.33-4.63-.44-7.47-1.08Z"/>
        </g>
        <g>
          <path class="cls-1" d="M288.46,189.2c1.68.28,3.41-1.04,3.41-1.04-.11,2.68-2.47,3.27-5.34,3.15-2.87-.12-5.16-1.04-5.05-3.58,2.58-.99,4.35,1.05,6.98,1.48Z"/>
          <path class="cls-1" d="M284.41,187.09c-1.66-.38-2.92.64-2.92.64.11-2.68,2.47-3.27,5.34-3.15,2.87.12,5.16,1.04,5.05,3.59-4.02,1.33-4.63-.44-7.47-1.08Z"/>
        </g>
        <g>
          <path class="cls-1" d="M197.4,133.49c.71,1.54,2.78,2.24,2.78,2.24-2.29,1.41-4.09-.21-5.6-2.66-1.51-2.44-2.03-4.85.13-6.19,2.26,1.58,1.57,4.19,2.69,6.61Z"/>
          <path class="cls-1" d="M196.87,128.95c-.62-1.58-2.17-2.06-2.17-2.06,2.29-1.41,4.09.21,5.6,2.66,1.51,2.44,2.04,4.86-.13,6.19-3.36-2.58-2.23-4.08-3.29-6.79Z"/>
        </g>
        <g>
          <path class="cls-1" d="M188.44,130.31c.73.72,2.04.68,2.04.68-.99,1.27-2.35.74-3.71-.32-1.36-1.06-2.17-2.31-1.22-3.52,1.61.42,1.76,2.03,2.9,3.16Z"/>
          <path class="cls-1" d="M187.19,127.86c-.68-.76-1.65-.7-1.65-.7.99-1.27,2.35-.74,3.71.32,1.36,1.06,2.17,2.31,1.22,3.52-2.43-.75-2.11-1.83-3.28-3.14Z"/>
        </g>
        <g>
          <path class="cls-1" d="M180.31,130.01c1.07.61,2.58.14,2.58.14-.75,1.8-2.49,1.6-4.41.81-1.92-.8-3.25-1.99-2.54-3.7,2-.03,2.7,1.8,4.37,2.74Z"/>
          <path class="cls-1" d="M178.07,127.57c-1.03-.67-2.15-.29-2.15-.29.75-1.8,2.49-1.61,4.41-.81,1.92.8,3.25,1.99,2.54,3.7-3.06-.1-3.04-1.45-4.81-2.6Z"/>
        </g>
        <g>
          <path class="cls-1" d="M169.36,133.66c2.37.91,5.32-.48,5.32-.48-.99,3.9-4.62,4.04-8.79,2.98-4.17-1.05-7.25-3.1-6.31-6.8,4.09-.66,6.06,2.87,9.78,4.3Z"/>
          <path class="cls-1" d="M164.05,129.33c-2.32-1.06-4.48.05-4.48.05.99-3.9,4.62-4.04,8.79-2.98,4.17,1.06,7.25,3.1,6.31,6.8-6.3.72-6.65-2.06-10.62-3.87Z"/>
        </g>
        <g>
          <path class="cls-1" d="M154.78,135.94c.19,1.69,1.92,3.01,1.92,3.01-2.62.61-3.81-1.5-4.47-4.3-.65-2.8-.39-5.25,2.09-5.83,1.64,2.22.16,4.47.45,7.12Z"/>
          <path class="cls-1" d="M155.72,131.47c-.08-1.7-1.41-2.64-1.41-2.64,2.62-.61,3.81,1.5,4.47,4.3.65,2.8.39,5.25-2.1,5.83-2.36-3.52-.82-4.58-.97-7.49Z"/>
        </g>
        <g>
          <path class="cls-1" d="M171.85,168.5c.13,1.22,1.39,2.17,1.39,2.17-1.89.44-2.75-1.08-3.22-3.1-.47-2.02-.28-3.79,1.51-4.21,1.19,1.6.12,3.23.33,5.14Z"/>
          <path class="cls-1" d="M172.53,165.27c-.06-1.23-1.01-1.91-1.01-1.91,1.89-.44,2.75,1.08,3.23,3.1.47,2.02.28,3.79-1.51,4.21-1.71-2.54-.59-3.31-.7-5.41Z"/>
        </g>
        <g>
          <path class="cls-1" d="M165.46,164.22c-.66,1.03-.29,2.56-.29,2.56-1.75-.84-1.46-2.57-.55-4.44.9-1.87,2.17-3.12,3.82-2.32-.09,1.99-1.94,2.58-2.98,4.2Z"/>
          <path class="cls-1" d="M168.02,162.13c.72-.99.41-2.12.41-2.12,1.75.85,1.46,2.57.55,4.44-.9,1.87-2.17,3.12-3.83,2.32.27-3.05,1.62-2.94,2.86-4.64Z"/>
        </g>
        <g>
          <path class="cls-1" d="M173.37,217.37c1.14,1.26,3.32,1.32,3.32,1.32-1.76,2.03-3.97,1.01-6.14-.87-2.17-1.88-3.39-4.03-1.71-5.96,2.63.84,2.75,3.54,4.53,5.51Z"/>
          <path class="cls-1" d="M171.52,213.19c-1.06-1.33-2.69-1.32-2.69-1.32,1.76-2.03,3.97-1.01,6.14.87,2.17,1.89,3.39,4.03,1.71,5.96-3.97-1.47-3.34-3.23-5.16-5.51Z"/>
        </g>
        <g>
          <path class="cls-1" d="M245.28,228.27c.19,1.69,1.92,3.01,1.92,3.01-2.62.61-3.81-1.5-4.47-4.3-.65-2.8-.39-5.25,2.09-5.83,1.64,2.22.16,4.47.45,7.12Z"/>
          <path class="cls-1" d="M246.22,223.8c-.08-1.7-1.41-2.64-1.41-2.64,2.62-.61,3.81,1.5,4.47,4.3.65,2.8.39,5.25-2.1,5.83-2.36-3.51-.82-4.58-.96-7.49Z"/>
        </g>
        <g>
          <path class="cls-1" d="M249.25,188.86c2.94,1.91,7.31.87,7.31.87-2.44,4.97-7.37,4.12-12.69,1.51-5.32-2.61-8.88-6.24-6.57-10.96,5.69.28,7.35,5.59,11.95,8.58Z"/>
          <path class="cls-1" d="M243.34,181.52c-2.82-2.09-6.05-1.21-6.05-1.21,2.44-4.97,7.37-4.12,12.69-1.51,5.32,2.61,8.88,6.24,6.57,10.96-8.69-.83-8.38-4.67-13.21-8.24Z"/>
        </g>
        <g>
          <path class="cls-1" d="M274.05,191.06c3.33,1.09,7.29-1.04,7.29-1.04-1.08,5.43-6.07,5.88-11.88,4.72-5.81-1.15-10.19-3.75-9.16-8.91,5.57-1.19,8.54,3.52,13.75,5.22Z"/>
          <path class="cls-1" d="M266.45,185.48c-3.26-1.29-6.16.39-6.16.39,1.08-5.43,6.07-5.88,11.88-4.72,5.81,1.16,10.19,3.75,9.16,8.91-8.61,1.43-9.29-2.36-14.89-4.57Z"/>
        </g>
        <g>
          <path class="cls-1" d="M224.16,193.71c-.95,2.81.82,6.18.82,6.18-4.6-.96-4.93-5.18-3.91-10.1,1.02-4.91,3.25-8.6,7.62-7.7.97,4.73-3.04,7.21-4.53,11.61Z"/>
          <path class="cls-1" d="M228.95,187.31c1.12-2.75-.28-5.22-.28-5.22,4.6.96,4.93,5.18,3.91,10.1-1.02,4.91-3.25,8.6-7.62,7.7-1.15-7.31,2.07-7.86,3.99-12.58Z"/>
        </g>
        <g>
          <path class="cls-1" d="M267.33,172.92c-1.54,2.94-.17,6.96-.17,6.96-4.9-1.85-4.54-6.57-2.55-11.81,1.98-5.24,5.08-8.92,9.74-7.16.24,5.38-4.61,7.42-7.01,12.01Z"/>
          <path class="cls-1" d="M273.72,166.7c1.71-2.84.6-5.8.6-5.8,4.9,1.85,4.54,6.57,2.56,11.81-1.99,5.24-5.09,8.92-9.74,7.16,0-8.26,3.65-8.3,6.58-13.17Z"/>
        </g>
        <g>
          <path class="cls-1" d="M283.44,176.43c-.95,2.82.82,6.18.82,6.18-4.6-.95-4.93-5.18-3.91-10.1,1.02-4.91,3.25-8.6,7.62-7.7.97,4.73-3.04,7.21-4.53,11.61Z"/>
          <path class="cls-1" d="M288.22,170.03c1.12-2.75-.28-5.22-.28-5.22,4.6.96,4.93,5.18,3.91,10.1-1.02,4.91-3.25,8.6-7.62,7.7-1.15-7.31,2.07-7.86,3.99-12.58Z"/>
        </g>
        <g>
          <path class="cls-1" d="M262.64,153.03c-2.04,1.29-2.66,4.32-2.66,4.32-2.41-2.96-.45-5.8,2.72-8.38,3.17-2.57,6.47-3.75,8.76-.94-1.82,3.48-5.62,2.98-8.82,4.99Z"/>
          <path class="cls-1" d="M268.95,151.46c2.12-1.16,2.5-3.43,2.5-3.43,2.41,2.97.45,5.8-2.72,8.38-3.17,2.57-6.47,3.75-8.76.94,3.03-5.2,5.34-3.89,8.98-5.88Z"/>
        </g>
        <g>
          <path class="cls-1" d="M235.14,198.78c-2.52,1.56-3.31,5.29-3.31,5.29-2.93-3.67-.49-7.14,3.43-10.27,3.92-3.13,8-4.55,10.77-1.07-2.27,4.26-6.94,3.61-10.89,6.05Z"/>
          <path class="cls-1" d="M242.9,196.91c2.62-1.41,3.11-4.2,3.11-4.2,2.93,3.67.49,7.14-3.43,10.27-3.92,3.13-8,4.55-10.78,1.07,3.78-6.36,6.61-4.73,11.09-7.15Z"/>
        </g>
      </g>
    </g>
  </g>
  <g>
    <path class="cls-1" d="M97.62,117.24c.65.59.94,1.34.88,2.25-.06.91-.44,1.78-1.15,2.63-2.91,3.49-5.67,7.2-8.25,11.13-.63.95-1.36,1.6-2.22,1.92-.86.33-1.66.27-2.41-.19-10.25-6.28-20.5-12.56-30.75-18.84-.75-.46-1.11-1.25-1.06-2.38.05-1.13.5-2.35,1.35-3.64,3.49-5.32,7.23-10.35,11.17-15.08.96-1.15,1.98-1.9,3.03-2.27,1.05-.36,1.91-.24,2.56.35,2.43,2.18,4.85,4.36,7.28,6.54-1.3,1.46-2.58,2.95-3.83,4.48-2.43-2.01-4.85-4.02-7.28-6.03-3.31,4.04-6.47,8.29-9.45,12.75,9.81,6.58,19.61,13.16,29.42,19.74,2.31-3.46,4.76-6.75,7.32-9.88-2.65-2.2-5.31-4.4-7.96-6.6,1.12-1.36,2.26-2.7,3.42-4.01,2.65,2.38,5.29,4.75,7.94,7.13Z"/>
    <path class="cls-1" d="M120.25,101.09c-1.15.8-2.29,1.63-3.42,2.48-.15-.19-.29-.39-.44-.58-1.25,1.19-2.48,2.4-3.69,3.63-1.51,1.52-2.72,2.73-3.68,3.6-1.76,1.59-3.28,1.74-4.62.34-2.19-2.3-4.38-4.61-6.58-6.91-1.39-1.44-1.08-3.16,1-5.04,2.87-2.58,5.84-5.02,8.88-7.31-1.57-2.1-3.15-4.2-4.72-6.3-2.95,2.21-5.82,4.56-8.61,7.04.98,1.12,1.97,2.23,2.95,3.35-1.22,1.08-2.43,2.19-3.62,3.32-1.01-1.07-2.02-2.14-3.03-3.2-1.39-1.46-1.01-3.26,1.22-5.26,3.18-2.85,6.47-5.53,9.84-8.04,2.37-1.76,4.16-1.74,5.31-.08,4.4,6.33,8.81,12.65,13.21,18.98ZM114.93,100.93c-1.85-2.47-3.7-4.93-5.55-7.4-2.83,2.13-5.59,4.38-8.26,6.77,2.08,2.35,4.16,4.7,6.24,7.04,2.45-2.26,4.98-4.39,7.57-6.41Z"/>
    <path class="cls-1" d="M121.58,55.61c-2.39,1.1-4.75,2.27-7.09,3.49,1.99,3.77,3.97,7.53,5.96,11.3,1.9-1,3.81-1.95,5.74-2.85.45.95.9,1.9,1.34,2.84-1.89.89-3.76,1.82-5.62,2.79,3.58,6.79,7.16,13.57,10.74,20.36-1.23.64-2.44,1.31-3.65,2-3.82-6.66-7.63-13.31-11.45-19.97-1.24.71-2.48,1.44-3.7,2.19-.55-.89-1.1-1.79-1.65-2.68,1.25-.77,2.51-1.51,3.78-2.24-2.14-3.72-4.27-7.45-6.41-11.17-1.01-1.75-.13-3.45,2.71-4.97,2.62-1.39,5.27-2.71,7.95-3.95.44.95.88,1.9,1.33,2.85Z"/>
    <path class="cls-1" d="M158.57,80.51c.48,1.97-.41,3.21-2.65,3.83-3.21.89-6.4,1.92-9.54,3.09-2.19.82-3.66.34-4.43-1.54-2.54-6.19-5.07-12.39-7.61-18.58-.77-1.87.17-3.36,2.86-4.37,3.83-1.42,7.72-2.68,11.64-3.77,2.75-.76,4.39-.1,4.87,1.86.76,3.04,1.52,6.08,2.28,9.12-.41.53-.81,1.07-1.2,1.61-4.12,1.07-8.2,2.33-12.22,3.8,1.09,2.96,2.19,5.92,3.28,8.87,2.88-1.05,5.8-2,8.74-2.83-.44-1.53-.88-3.07-1.32-4.6,1.38-.39,2.76-.76,4.15-1.1.38,1.53.76,3.06,1.15,4.59ZM151.2,69.79c-.72-2.52-1.44-5.05-2.17-7.57-3.43.97-6.83,2.07-10.19,3.3.91,2.46,1.82,4.92,2.73,7.39,3.17-1.16,6.38-2.2,9.62-3.11ZM148.56,50.43c-2.66,2.84-5.16,5.74-7.52,8.71-1.14.38-2.28.78-3.42,1.19-.02-.05-.04-.1-.06-.15,1.13-2.59,2.35-5.17,3.65-7.73,2.42-.77,4.86-1.47,7.31-2.11,0,.03.02.07.03.1Z"/>
    <path class="cls-1" d="M203.41,73.31c-.27,2.21-1.38,3.9-3.24,5.14-1.86,1.25-4.03,1.78-6.59,1.66-3.71-.17-7.42-.17-11.13,0-.66-13.99-1.31-27.99-1.97-41.98,5.02-.23,10.06-.23,15.08,0,3.51.16,6.36,1.12,8.45,2.76,2.09,1.64,2.96,3.59,2.68,5.79-1.09,8.88-2.19,17.75-3.28,26.63ZM198.87,72.47c.75-8.68,1.5-17.36,2.25-26.04.12-1.37-.43-2.54-1.69-3.49-1.26-.94-2.96-1.48-5.08-1.56-2.65-.11-5.31-.14-7.97-.12.12,11.81.24,23.61.37,35.42,1.97-.02,3.94,0,5.92.08,1.72.06,3.14-.26,4.29-1.02,1.14-.75,1.79-1.84,1.92-3.28Z"/>
    <path class="cls-1" d="M222.98,52.19c-1.74-.41-3.48-.79-5.22-1.13.3-1.47.6-2.95.89-4.42,1.8.36,3.59.75,5.38,1.17-.35,1.46-.7,2.93-1.05,4.39ZM215.5,83.17c-1.33-.31-2.66-.6-3.99-.87,1.73-8.54,3.46-17.08,5.19-25.62,1.63.32,3.26.68,4.88,1.06-2.02,8.48-4.04,16.95-6.07,25.43Z"/>
    <path class="cls-1" d="M251.53,68.38c-6.63,6.5-12.78,13.33-18.45,20.46-1.17-.48-2.36-.94-3.54-1.38.69-9.06.83-18.24.41-27.48,1.67.5,3.33,1.03,4.99,1.59-.22,7.17-.74,14.29-1.55,21.34,4.23-5.72,8.73-11.29,13.49-16.69,1.56.69,3.11,1.41,4.65,2.16Z"/>
    <path class="cls-1" d="M273.74,71.36c-3.97-.18-7.87-.18-11.7-.01-1.06-.62-2.12-1.22-3.19-1.8.03-.05.05-.09.08-.14,2.72-.85,5.49-1.63,8.32-2.32,2.22,1.33,4.4,2.73,6.56,4.19-.02.03-.04.06-.06.09ZM250.06,97.36c-1.19-.73-2.39-1.43-3.6-2.12,4.3-7.59,8.6-15.18,12.9-22.76,1.48.83,2.94,1.7,4.39,2.59-4.56,7.43-9.13,14.86-13.69,22.3Z"/>
    <path class="cls-1" d="M271.49,114.27c-1.04-1.04-2.09-2.06-3.16-3.05,5.18-5.63,10.37-11.26,15.55-16.89-2.86-2.56-5.8-4.97-8.82-7.25-4.67,5.97-9.34,11.95-14.01,17.92-1.13-.89-2.27-1.75-3.43-2.59,5.12-7.06,10.24-14.12,15.36-21.18,1.41,1.03,2.81,2.08,4.19,3.17-.15.19-.3.38-.45.57,1.72,1.12,3.44,2.29,5.16,3.51,2.07,1.5,3.71,2.85,4.92,3.99,2.17,2.05,2.53,3.82,1.15,5.2-5.49,5.53-10.98,11.07-16.47,16.6Z"/>
    <path class="cls-1" d="M291.58,134.96c-1.73,1.05-3.28.43-4.72-1.77-2.14-3.25-4.4-6.36-6.77-9.31-1.59-1.97-1.65-3.57-.12-4.91,5.06-4.37,10.13-8.75,15.19-13.12,1.52-1.32,3.3-.84,5.25,1.58,2.89,3.61,5.65,7.39,8.26,11.36,1.77,2.7,1.74,4.63.01,5.68-5.7,3.49-11.4,6.99-17.1,10.48ZM289.09,130.86c5.5-3.68,11-7.35,16.5-11.03-2.26-3.39-4.62-6.64-7.09-9.75-5.17,4.13-10.34,8.27-15.51,12.4,2.12,2.68,4.16,5.47,6.09,8.38Z"/>
  </g>
</svg>